<svg xmlns="http://www.w3.org/2000/svg" style="display: none">
  <symbol id="bar" viewBox="0 0 32 32">
    <path fill="#2D4552" d="M1.996 22.979l.024 2.99h6.958l.022-2.99c0 .007-6.995-.002-7.004 0zm27.992 0l-7.006.031.023 2.959h6.988l-.005-2.99z"/><path fill="#202D35" d="M2.971 25.969h1.036v-2.99h-1.036v2.99zm1.998 0h1.036v-2.99h-1.036v2.99zm2.023 0h.978v-2.99h-.978v2.99zm21.018-2.959v2.959h1.004v-2.959h-1.004zm-1.998 2.959h.974v-2.959h-.974v2.959zm-2.028.031h1.008v-2.99h-1.008v2.99z"/><path fill="#BF392C" d="M28 .994c0-.583-.399-.994-1.005-.994h-21.974c-.607 0-1.006.411-1.006.994v8.006h23.983l.002-8.006zm-26.977 11.01v8.98h29.969v-8.98h-29.969z"/><path fill="#fff" d="M26.013 1.966l-.006 7.044-20.005-.002-.024-7.044 20.035.002z"/><path fill="#F0F0F0" d="M6.01 1.966h9.998v7.046h-9.998v-7.046z"/><path fill="#E2574C" d="M27.96 9.009h-23.936l-2.945 2.988 29.895.007-3.014-2.995z"/><path fill="#CCD0D2" d="M0 20.983h31.984v1.995h-31.984v-1.995z"/><path fill="#fff" d="M2.996 18.989l6.002.028.023-5.054-6.032.004.007 5.022zm26.013-4.992l-6.033-.029.008 5.021 6.032.028-.007-5.02z"/><path fill="#F4B459" d="M4.002 17.983h3.984v-2.995h-3.984v2.995zm23.969-2.988l-3.962.002.008 2.965 3.962.029-.008-2.996z"/><path fill="#E4E7E7" d="M10.966 18.991h10.043v-2.027h-10.043v2.027zm0-5.024v2.029h10.043v-2.029h-10.043z"/>
  </symbol>
  <symbol id="fizz" viewBox="0 0 32 32">
    <path fill="#E89C25" d="M16 0c-8.837 0-16 7.164-16 16s7.163 16 16 16 16-7.164 16-16-7.163-16-16-16zm0 22c-3.313 0-6-2.686-6-6s2.687-6 6-6 6 2.686 6 6-2.687 6-6 6z"/><path fill="#7A482E" d="M31.866 17.968c.08-.646.134-1.298.134-1.964-.001-2.542-.608-4.937-1.661-7.071-2.611-5.287-8.043-8.933-14.339-8.933-8.837 0-16 7.164-16 16 0 .328.03.65.049.974.658-.024 1.369-.085 2.002-.204 4.498-.834 4.932-2.133 8.455-3.18.931-2.113 3.038-3.59 5.494-3.59 3.313 0 6 2.686 6 6l-.007.136c2.765 1.603 8.914 1.809 9.873 1.832z"/><path fill="#946C57" d="M16 4.629c6.904 0 12.536 5.387 12.959 12.186.017-.272.041-.541.041-.815 0-7.18-5.82-13-13-13s-13 5.82-13 13c0 .274.024.543.041.814.423-6.798 6.054-12.185 12.959-12.185z"/><g fill="#BB7E1F"><path d="M23 15c0-3.314-2.687-6-6-6-1.911 0-3.61.896-4.71 2.29 1.022-.806 2.309-1.29 3.71-1.29 3.313 0 6 2.686 6 6 0 1.402-.484 2.688-1.29 3.71 1.393-1.099 2.29-2.798 2.29-4.71zM17 31c-8.837 0-16-7.164-16-16 0-4.164 1.604-7.943 4.21-10.79-3.194 2.925-5.21 7.116-5.21 11.79 0 8.836 7.163 16 16 16 4.673 0 8.864-2.016 11.79-5.21-2.847 2.606-6.626 4.21-10.79 4.21z"/></g><path fill="#623A25" d="M21.993 16.136c.242.141.517.267.805.386.128-.487.202-.995.202-1.522 0-3.314-2.687-6-6-6-1.911 0-3.61.896-4.71 2.29l.135-.089c.173-.13.353-.249.539-.359l.258-.146c.191-.101.389-.188.591-.267l.283-.11c.213-.072.434-.125.657-.173l.273-.062c.318-.053.642-.084.974-.084 3.313 0 6 2.686 6 6l-.007.136z"/><path fill="#623A25" d="M1.123 16.898c-.074-.624-.123-1.255-.123-1.898 0-4.164 1.604-7.943 4.21-10.79-.398.364-.777.749-1.137 1.15l-.007.008c-.35.392-.68.803-.991 1.229l-.04.053c-.293.405-.565.825-.821 1.256l-.078.13c-.235.405-.446.823-.645 1.25l-.108.224c-.178.398-.332.808-.477 1.222l-.119.324c-.127.39-.229.791-.327 1.194l-.105.41c-.085.4-.144.811-.198 1.221l-.065.43c-.06.554-.092 1.118-.092 1.689 0 .328.03.65.049.974.35-.013.714-.038 1.074-.076z"/>
  </symbol>
  <symbol id="foo" viewBox="0 0 32 32">
    <path fill="#BF392C" d="M2 17h28c1.104 0 2 .896 2 2v9c0 1.105-.896 2-2 2h-28c-1.104 0-2-.895-2-2v-9c0-1.104.896-2 2-2z"/><path fill="#324D5B" d="M16 2c1.305 0 2.402.838 2.816 2h2.184c0-2.209-2.238-4-5-4-2.761 0-5 1.791-5 4h2.184c.414-1.162 1.512-2 2.816-2z"/><path fill="#E2574C" d="M9 4h14c3.312 0 6 2.687 6 6v20c0 1.105-.896 2-2 2h-22c-1.104 0-2-.895-2-2v-20c0-3.313 2.686-6 6-6z"/><path fill="#BF392C" d="M6 4h20c2.209 0 4 1.791 4 4v4c0 2.209-1.791 4.001-4 4.001h-20c-2.209 0-4-1.792-4-4.001v-4c0-2.209 1.791-4 4-4z"/><path fill="#EFC75E" d="M8 25s.771 2 1.531 2c.739 0 1.469-2 1.469-2v-21h-3v21zm13-21v21s.771 2 1.531 2c.739 0 1.469-2 1.469-2v-21h-3z"/><path fill="#E4E7E7" d="M7 23h5v-3h-5v3zm13-3v3h5v-3h-5z"/>
  </symbol>
</svg>
