<svg style="display: none">
  <symbol id="bar" viewBox="0 0 32 32">
    <svg width="32" height="32">
      <path class="rg" fill="#EBEBEB" d="M16 .003c8.837 0 16 7.163 16 16s-7.163 16.001-16 16.001-16-7.164-16-16.001 7.163-16 16-16z"/><path class="rg" fill="#324D5B" d="M23 15.004h-6v-7.002c0-.553-.448-1-1-1s-1 .447-1 1v8c0 .553.448 1 1 1h7c.553 0 1-.447 1-1 0-.55-.447-.998-1-.998z"/><path class="rg" fill="#E2574C" d="M16 .003c-8.837 0-16 7.163-16 16s7.163 16.001 16 16.001 16-7.164 16-16.001-7.163-16-16-16zm0 29.001c-7.168 0-13-5.832-13-13.001 0-7.168 5.832-13 13-13s13 5.832 13 13c0 7.169-5.832 13.001-13 13.001z"/>
    </svg>
  </symbol>
  <symbol id="fizz" viewBox="0 0 32 32">
    <svg width="32" height="32">
      <path class="rg" fill="#BF392B" d="M5 30.001l-2-12.001c0-1.104.896-1.999 2-1.999v-1c0-1.105.896-2.001 2-2.001h1c0-1.104.896-1.999 2-1.999v2c.366 0 .705.105 1 .277v-1.278c0-1.104.896-2 2-2h1c1.104 0 2 .896 2 2v4.001l2-14c0-.738.404-1.376 1-1.723-.295-.173-.634-.278-1-.278h-1c-1.104 0-2 .896-2 2.001l-.208 4.999h-3.792c-1.104 0-2 .896-2 2.001v1.277c-.295-.173-.634-.278-1-.278h-1c-1.104 0-2 .896-2 2h-1c-1.104 0-2 .896-2 2v1.001c-1.104 0-2 .895-2 1.999l2 13.001c0 1.103.896 1.999 2 1.999h3c-1.104 0-2-.896-2-1.999z"/><path class="rg" fill="#E2574C" d="M20 0h-1c-1.104 0-2 .896-2 2.001l-1 12v-4.001c0-1.104-.896-2-2-2h-1c-1.104 0-2 .896-2 2v1.278c-.295-.172-.634-.277-1-.277h-1c-1.104 0-2 .895-2 1.999h-1c-1.104 0-2 .896-2 2.001v1c-1.104 0-2 .896-2 1.999l2 12.001c0 1.103.896 1.999 2 1.999h14c1.104 0 2-.896 2-1.999v-28c0-1.105-.896-2.001-2-2.001z"/><path class="rg" fill="#EFC75E" d="M11.232 18.859h-.668l.254-1.52c.022-.148.035-.339-.23-.339h-.852c-.161 0-.312.063-.334.286l-.254 1.572h-1.357l.253-1.521c.013-.146.022-.337-.241-.337h-.841c-.161 0-.321.062-.346.286l-.253 1.571h-.668c-.161 0-.265.063-.288.254l-.092.605c-.023.148-.035.299.207.299h.668l-.139.955h-.667c-.162 0-.266.063-.288.254l-.093.605c-.022.148-.034.298.208.298h.667l-.253 1.519c-.012.148-.023.34.242.34h.84c.161 0 .322-.074.346-.297l.254-1.562h1.358l-.254 1.519c-.022.148-.034.34.229.34h.842c.16 0 .322-.074.345-.297l.254-1.562h.668c.161 0 .265-.073.299-.256l.081-.615c.021-.139.046-.286-.208-.286h-.667l.068-.479.068-.479h.668c.162 0 .266-.074.299-.255l.082-.616c.024-.132.047-.282-.207-.282zm-2.394 2.116h-1.358l.139-.957h1.347l-.128.957zm7.834 1.527h-.806v-5.214c-.013-.224-.14-.276-.334-.276h-1.117c-.196 0-.322.055-.334.276 0 .797-.507.894-.726.894h-.254c-.265 0-.334.105-.334.308v.86c0 .201.069.308.334.308h.979v2.846h-.979c-.265 0-.334.117-.334.31v.869c0 .191.069.309.334.309h3.569c.265 0 .334-.116.334-.309v-.869c.002-.195-.066-.312-.332-.312z"/>
    </svg>
  </symbol>
  <symbol id="foo" viewBox="0 0 32 32">
    <svg width="32" height="32">
      <path class="rg" fill="#3F95D4" d="M6 4h4c.553 0 1 .449 1 1.002v19.998c0 .553-.447 1-1 1h-4c-.553 0-1-.447-1-1v-19.999c0-.552.447-1.001 1-1.001z"/><path class="rg" fill="#367FB4" d="M7 25v-19.999c0-.552.447-1.001 1-1.001h-2c-.553 0-1 .449-1 1.001v19.999c0 .553.447 1 1 1h2c-.553 0-1-.448-1-1z"/><path class="rg" fill="#D99666" d="M0 26h32v6h-32v-6z"/><path class="rg" fill="#F7CB8B" d="M5 19h6v4.002h-6v-4.002z"/><path class="rg" fill="#349886" d="M12 0h6c.553 0 1 .449 1 1.002v23.998c0 .553-.447 1-1 1h-6c-.553 0-1-.447-1-1v-23.999c0-.552.447-1.001 1-1.001z"/><path class="rg" fill="#9ACCC3" d="M14 22.001h2v-14.001h-2v14.001zm0-18.001v2h2v-2h-2z"/><path class="rg" fill="#E2574C" d="M20 6h6c.553 0 1 .449 1 1v18c0 .553-.447 1-1 1h-6c-.553 0-1-.447-1-1v-18c0-.551.447-1 1-1z"/><rect x="5" y="19" fill="#D2AD77" width="2" height="4.002"/><path class="rg" fill="#2C8172" d="M13 25v-23.999c0-.552.447-1.001 1-1.001h-2c-.553 0-1 .449-1 1.001v23.999c0 .553.447 1 1 1h2c-.553 0-1-.448-1-1z"/><path class="rg" fill="#C04A40" d="M21 25v-18c0-.551.447-1 1-1h-2c-.553 0-1 .449-1 1v18c0 .553.447 1 1 1h2c-.553 0-1-.448-1-1z"/><path class="rg" fill="#F7CB8B" d="M19 16h8v-4h-8v4zm0-6v1.002h8v-1.002h-8z"/><g class="rg" fill="#D2AD77"><rect x="19" y="10" width="2" height="1.002"/><rect x="19" y="12" width="2" height="4"/></g>
    </svg>
  </symbol>
</svg>
