
<svg xmlns="http://www.w3.org/2000/svg" style="display: none;"> 
  <symbol id="backpack2" viewBox="0 0 32 32"><svg xmlns="http://www.w3.org/2000/svg" width="24" height="32"><path fill="#349886" d="M5 0h-1c-1.104 0-2 .896-2 2v10c0 1.105.896 2 2 2h1c1.104 0 2-.896 2-2v-10c0-1.104-.896-2-2-2zm14 0h-1c-1.104 0-2 .896-2 2v10c0 1.105.896 2 2 2h1c1.104 0 2-.896 2-2v-10c0-1.104-.896-2-2-2z"/><path fill="#51BBA8" d="M12 2c6.627 0 12 5.373 12 12.001v13.999c0 2.21-1.791 4-4 4h-16c-2.209 0-4-1.79-4-4v-13.999c0-6.628 5.373-12.001 12-12.001z"/><path fill="#F1CD6E" d="M15.487 13.81l-2.339-2.338c-.646-.646-1.692-.646-2.338 0l-2.34 2.338c-.646.646-.646 1.693 0 2.339l2.34 2.337c.646.646 1.691.646 2.338 0l2.339-2.337c.646-.646.646-1.693 0-2.339zm-4.487 1.69c0 .276-.224.5-.5.5-.275 0-.5-.224-.5-.5v-1c0-.276.225-.5.5-.5.276 0 .5.224.5.5v1zm3 0c0 .276-.224.5-.5.5-.275 0-.5-.224-.5-.5v-1c0-.276.225-.5.5-.5.276 0 .5.224.5.5v1z"/><path fill="#F1CD6E" d="M0 25.001h24v1h-24v-1z"/><path fill="#475F6C" d="M0 28c0 2.21 1.791 4 4 4h16c2.209 0 4-1.79 4-4v-1.999h-24v1.999z"/></svg>
  </symbol>
</svg>
<svg xmlns="http://www.w3.org/2000/svg" style="display: none;"> 
  <symbol id="backpack" viewBox="0 0 32 32"><svg xmlns="http://www.w3.org/2000/svg" width="32" height="32"><path fill="#BF392C" d="M2 17h28c1.104 0 2 .896 2 2v9c0 1.105-.896 2-2 2h-28c-1.104 0-2-.895-2-2v-9c0-1.104.896-2 2-2z"/><path fill="#324D5B" d="M16 2c1.305 0 2.402.838 2.816 2h2.184c0-2.209-2.238-4-5-4-2.761 0-5 1.791-5 4h2.184c.414-1.162 1.512-2 2.816-2z"/><path fill="#E2574C" d="M9 4h14c3.312 0 6 2.687 6 6v20c0 1.105-.896 2-2 2h-22c-1.104 0-2-.895-2-2v-20c0-3.313 2.686-6 6-6z"/><path fill="#BF392C" d="M6 4h20c2.209 0 4 1.791 4 4v4c0 2.209-1.791 4.001-4 4.001h-20c-2.209 0-4-1.792-4-4.001v-4c0-2.209 1.791-4 4-4z"/><path fill="#EFC75E" d="M8 25s.771 2 1.531 2c.739 0 1.469-2 1.469-2v-21h-3v21zm13-21v21s.771 2 1.531 2c.739 0 1.469-2 1.469-2v-21h-3z"/><path fill="#E4E7E7" d="M7 23h5v-3h-5v3zm13-3v3h5v-3h-5z"/></svg>

  </symbol>
</svg>
<svg xmlns="http://www.w3.org/2000/svg" style="display: none;"> 
  <symbol id="bill" viewBox="0 0 32 32"><svg xmlns="http://www.w3.org/2000/svg" width="30" height="32"><path fill="#E4E7E7" d="M.99 0h28c.553 0 1 .448 1 1v31l-3.014-3-2.98 3-3.01-3-3.016 3-3.006-3-2.992 3-3.002-3-2.986 3-2.994-3-3 3v-31c0-.552.448-1 1-1z"/><path fill="#E2574C" d="M15.99 21.988h-12v1.998h12v-1.998z"/><path fill="#868686" d="M23.99 17.99v2.01h2v-2.01h-2zm-20 1.996h18v-1.998h-18v1.998z"/><path fill="#2494BC" d="M3.99 15h2v-11h-2v11zm4 0h3v-11h-3v11zm12 0h1v-11h-1v11zm3-11v11h3v-11h-3zm-7 11h2v-11h-2v11zm-3 0h1v-11h-1v11z"/></svg>
  </symbol>
</svg>
<svg xmlns="http://www.w3.org/2000/svg" style="display: none;"> 
  <symbol id="bookmark" viewBox="0 0 32 32"><svg xmlns="http://www.w3.org/2000/svg" width="32.031" height="32.006"><path fill="#EFF1F1" d="M4.015.003h24c2.209 0 4 1.791 4 4v24c0 2.209-1.791 4-4 4h-24c-2.209 0-4-1.791-4-4v-24c0-2.209 1.791-4 4-4z"/><path fill="#EFF1F1" d="M4.015 3.003h24c2.209 0 4 1.791 4 4v21c0 2.209-1.791 4-4 4h-24c-2.209 0-4-1.791-4-4v-21c0-2.209 1.791-4 4-4z"/><path fill="#EFF1F1" d="M4.015 6.003h24c2.209 0 4 1.791 4 4v18c0 2.209-1.791 4-4 4h-24c-2.209 0-4-1.791-4-4v-18c0-2.209 1.791-4 4-4z"/><path fill="#D7D8D8" d="M28.015.003h-24c-2.209 0-4 1.791-4 4v1c0-2.209 1.791-4 4-4h24c2.209 0 4 1.791 4 4v-1c0-2.209-1.791-4-4-4z"/><path fill="#D7D8D8" d="M28.015 3.003h-24c-2.209 0-4 1.791-4 4v1c0-2.209 1.791-4 4-4h24c2.209 0 4 1.791 4 4v-1c0-2.209-1.791-4-4-4z"/><path fill="#D7D8D8" d="M28.015 6.003h-24c-2.209 0-4 1.791-4 4v1c0-2.209 1.791-4 4-4h24c2.209 0 4 1.791 4 4v-1c0-2.209-1.791-4-4-4z"/><path fill="#E2574C" d="M8.015 3.003h16v24.001l-7.997-5.001-8.003 5.001v-24.001z"/><rect x="8.015" y="3.003" fill="#B5463D" width="16" height="4"/></svg>
  </symbol>
</svg>
<svg xmlns="http://www.w3.org/2000/svg" style="display: none;"> 
  <symbol id="bookshelf" viewBox="0 0 32 32"><svg xmlns="http://www.w3.org/2000/svg" width="32" height="32"><path fill="#3F95D4" d="M6 4h4c.553 0 1 .449 1 1.002v19.998c0 .553-.447 1-1 1h-4c-.553 0-1-.447-1-1v-19.999c0-.552.447-1.001 1-1.001z"/><path fill="#367FB4" d="M7 25v-19.999c0-.552.447-1.001 1-1.001h-2c-.553 0-1 .449-1 1.001v19.999c0 .553.447 1 1 1h2c-.553 0-1-.448-1-1z"/><path fill="#D99666" d="M0 26h32v6h-32v-6z"/><path fill="#F7CB8B" d="M5 19h6v4.002h-6v-4.002z"/><path fill="#349886" d="M12 0h6c.553 0 1 .449 1 1.002v23.998c0 .553-.447 1-1 1h-6c-.553 0-1-.447-1-1v-23.999c0-.552.447-1.001 1-1.001z"/><path fill="#9ACCC3" d="M14 22.001h2v-14.001h-2v14.001zm0-18.001v2h2v-2h-2z"/><path fill="#E2574C" d="M20 6h6c.553 0 1 .449 1 1v18c0 .553-.447 1-1 1h-6c-.553 0-1-.447-1-1v-18c0-.551.447-1 1-1z"/><rect x="5" y="19" fill="#D2AD77" width="2" height="4.002"/><path fill="#2C8172" d="M13 25v-23.999c0-.552.447-1.001 1-1.001h-2c-.553 0-1 .449-1 1.001v23.999c0 .553.447 1 1 1h2c-.553 0-1-.448-1-1z"/><path fill="#C04A40" d="M21 25v-18c0-.551.447-1 1-1h-2c-.553 0-1 .449-1 1v18c0 .553.447 1 1 1h2c-.553 0-1-.448-1-1z"/><path fill="#F7CB8B" d="M19 16h8v-4h-8v4zm0-6v1.002h8v-1.002h-8z"/><g fill="#D2AD77"><rect x="19" y="10" width="2" height="1.002"/><rect x="19" y="12" width="2" height="4"/></g></svg>
  </symbol>
</svg>
<svg xmlns="http://www.w3.org/2000/svg" style="display: none;"> 
  <symbol id="briefcase" viewBox="0 0 32 32"><svg xmlns="http://www.w3.org/2000/svg" width="32" height="26"><path fill="#2B414D" d="M19 0h-6c-1.104 0-2 .896-2 2v2h2v-.999c0-.552.448-1.001 1-1.001h4c.553 0 1 .449 1 1.002v.998h2v-2c0-1.104-.896-2-2-2z"/><path fill="#475F6C" d="M2 4h27c1.104 0 2 .896 2 2v18c0 1.104-.896 2-2 2h-26c-1.104 0-2-.896-2-2v-18c0-1.104-.104-2 1-2z"/><path fill="#2B414D" d="M2 4h28c1.104 0 2 .896 2 2v6c0 1.104-.896 2-2 2h-28c-1.104 0-2-.896-2-2v-6c0-1.104.896-2 2-2z"/><path fill="#EFC75E" d="M6 21s.771 2 1.531 2c.74 0 1.469-2 1.469-2v-17h-3v17zm17-17v17s.771 2 1.531 2c.739 0 1.469-2 1.469-2v-17h-3z"/><path fill="#E4E7E7" d="M5 19h5v-3h-5v3zm17-3v3h5v-3h-5z"/><path fill="#EFC75E" d="M16 7c1.104 0 2 .896 2 2s-.896 2-2 2-2-.896-2-2 .896-2 2-2z"/></svg>
  </symbol>
</svg>
<svg xmlns="http://www.w3.org/2000/svg" style="display: none;"> 
  <symbol id="bus" viewBox="0 0 32 32"><svg xmlns="http://www.w3.org/2000/svg" width="32" height="32.007"><path fill="#2D4552" d="M2.004 28.98l.024 2.992h6.958l.024-2.992c-.002.008-6.998 0-7.006 0zm27.992 0l-7.006.031.023 2.961h6.99l-.007-2.992z"/><g fill="#324D5B"><polygon points="8.986,30.972 2.028,30.972 2.012,28.98 2.004,28.98 2.028,31.972 8.986,31.972 9.01,28.98 9.002,28.98"/><polygon points="23.014,30.972 22.998,29.011 22.99,29.011 23.014,31.972 30.004,31.972 30.001,30.972"/></g><path fill="#1F2F37" d="M2.979 31.972h1.036v-2.992h-1.036v2.992zm1.997 0h1.036v-2.992h-1.036v2.992zm2.024 0h.977v-2.992h-.977v2.992zm21.018-2.961v2.961h1.004v-2.961h-1.004zm-1.997 2.961h.973v-2.961h-.973v2.961zm-2.029.031h1.008v-2.992h-1.008v2.992z"/><path fill="#BF392C" d="M3.016.003h26c1.104 0 2 .895 2 2v25c0 1.104-.896 1.998-2 1.998h-26c-1.104 0-2-.895-2-1.998v-25c0-1.105.895-2 2-2z"/><path fill="#fff" d="M29.016 5.031v-1.03c0-.553-.447-1-1-1h-24c-.553 0-1 .447-1 1v1.027h-.03l.023 10.98 26.005.002.007-10.98h-.005z"/><path fill="#CCD0D2" d="M.008 26.986h31.984v1.994h-31.984v-1.994z"/><path fill="#fff" d="M2.997 24.021h6.032v-5.051h-6.032v5.051zm26.026-5.051h-6.033v5.051h6.033v-5.051z"/><path fill="#F5B863" d="M4.01 22.992h3.984v-3.002h-3.984v3.002zm23.977-3.002h-3.97v3.002h3.97v-3.002z"/><path fill="#E4E7E7" d="M11.005 23.994h10.011v-.998h-10.011v.998zm0-1.996h10.011v-1.028h-10.011v1.028zm0-3.028v1.027h10.011v-1.027h-10.011z"/><path fill="#F0F0F0" d="M3.018 16.009l12.998.001v-13.009h-12c-.549 0-.993.442-.998.99v12.018z"/><rect x="28.018" y="29.011" fill="#202D35" width="1.004" height="2.961"/><rect x="23.992" y="29.011" fill="#202D35" width="1.008" height="2.992"/><rect x="2.979" y="30.972" fill="#23343D" width="1.036" height="1"/><rect x="7" y="30.972" fill="#23343D" width=".977" height="1"/><rect x="4.976" y="30.972" fill="#23343D" width="1.036" height="1"/><rect x="28.018" y="30.972" fill="#23343D" width="1.004" height="1"/><rect x="26.021" y="30.972" fill="#23343D" width=".973" height="1"/><rect x="23.992" y="30.972" fill="#23343D" width="1.008" height="1"/></svg>
  </symbol>
</svg>
<svg xmlns="http://www.w3.org/2000/svg" style="display: none;"> 
  <symbol id="calc" viewBox="0 0 32 32"><svg xmlns="http://www.w3.org/2000/svg" width="28" height="32"><path fill="#EAEDED" d="M2 0h24c1.104 0 2 .896 2 2v28c0 1.104-.896 2-2 2h-24c-1.104 0-2-.896-2-2v-28c0-1.105.896-2 2-2z"/><path fill="#D3D6D8" d="M3 3h22v7h-22v-7z"/><path fill="#B7BBBD" d="M19 5v3h4v-3h-4zm3 2h-2v-1h2v1z"/><path fill="#49616E" d="M3 16.999h4v-4h-4v4zm6 0h4v-4h-4v4zm6-3.999v4h4v-4h-4zm-12 9.999h4v-3.999h-4v3.999zm6 0h4v-3.999h-4v3.999zm6 0h4v-3.999h-4v3.999zm-12 6h4v-4h-4v4zm6 0h4v-4h-4v4zm6 0h4v-4h-4v4z"/><path fill="#E2574C" d="M21 13v4h4v-4h-4zm0 15.999h4v-9.999h-4v9.999z"/></svg>
  </symbol>
</svg>
<svg xmlns="http://www.w3.org/2000/svg" style="display: none;"> 
  <symbol id="candy" viewBox="0 0 32 32"><svg xmlns="http://www.w3.org/2000/svg" width="32" height="32.007"><path fill="#EFC75E" d="M15.997.017c8.83 0 15.986 7.158 15.986 15.988 0 8.829-7.156 15.987-15.986 15.987-8.829 0-15.986-7.158-15.986-15.987 0-8.83 7.157-15.988 15.986-15.988z"/><path fill="#D9B455" d="M15.997 6.923c5.753 0 10.471 4.434 10.956 10.081.027-.316.044-.635.044-.959 0-6.098-4.924-11.039-11-11.039-6.075 0-11 4.941-11 11.039 0 .324.018.643.044.959.485-5.648 5.204-10.081 10.956-10.081z"/><path fill="#E2574C" d="M29.992 19.158c-.684.184-1.401.328-2.138.424-.735.082-1.486.115-2.238.098-.748-.025-1.492-.109-2.215-.232l-.535-.109-.265-.057-.26-.066-.513-.137-.498-.156-.244-.078-.236-.088-.467-.174c-.299-.129-.596-.248-.871-.379l-.404-.199-.385-.199c-.243-.139-.484-.264-.698-.398l-.603-.379-.498-.35-.215-.15-.182-.143-.289-.225-.178-.141.232.053.361.08.229.051.263.045.618.105.737.088c.265.031.547.041.848.062l.463.016.488.008c.333 0 .68-.02 1.043-.034l.551-.049.283-.025.287-.037.587-.082.599-.111.307-.059.307-.072.624-.152c.833-.232 1.69-.523 2.544-.891.85-.373 1.697-.814 2.519-1.322.564-.356 1.109-.753 1.642-1.166-.478-2.152-1.392-4.135-2.641-5.864-.228.56-.49 1.132-.808 1.7-.353.613-.757 1.225-1.212 1.812-.461.578-.969 1.133-1.513 1.65-.548.512-1.133.979-1.731 1.402l-.455.301-.227.148-.231.135-.459.268-.462.24-.229.119-.229.104-.453.209c-.303.119-.597.244-.885.348l-.427.145-.412.131c-.271.074-.529.156-.775.213l-.694.158-.6.105-.259.043-.229.029-.363.045-.264.031-.015-.012.233-.146.312-.199.198-.127.218-.152.511-.363.583-.459c.21-.166.416-.359.645-.555l.339-.316.35-.34c.235-.236.467-.494.714-.762l.355-.424.184-.219.176-.229.357-.473.345-.502.175-.258.166-.268.334-.549c.424-.754.824-1.566 1.168-2.43.336-.865.623-1.775.847-2.715.146-.65.251-1.313.335-1.98-1.793-1.142-3.827-1.931-6.011-2.283.233.556.452 1.146.629 1.771.185.684.329 1.4.424 2.137.083.734.116 1.486.099 2.238-.027.748-.11 1.492-.232 2.215l-.109.535-.057.266-.067.258-.136.514-.156.498-.078.244-.088.236-.174.467c-.129.299-.248.596-.38.871l-.198.404-.199.385-.398.697-.379.604-.35.498-.151.215-.142.182-.227.289-.171.219-.011-.01.061-.268.081-.359.051-.23.046-.262.104-.619.088-.736c.031-.266.041-.549.062-.85l.017-.461.007-.488c0-.334-.02-.68-.033-1.043l-.048-.551-.025-.285-.037-.285-.082-.588-.111-.6-.059-.305-.071-.307-.153-.625c-.233-.832-.524-1.689-.892-2.543-.373-.85-.814-1.697-1.32-2.52-.357-.563-.754-1.108-1.167-1.641-2.151.478-4.134 1.392-5.862 2.64.559.229 1.13.491 1.697.807.614.354 1.225.758 1.812 1.211.579.463 1.134.971 1.651 1.514.512.549.979 1.133 1.404 1.73l.299.455.148.229.136.23.267.459.241.461.117.229.105.23.208.453c.119.303.244.596.348.885l.145.426.131.412c.074.271.156.529.213.775l.158.695.105.6.044.258.028.229.045.363.03.258-.155-.246-.197-.312-.127-.199-.154-.217-.362-.512-.46-.582-.555-.645-.316-.338-.34-.35c-.234-.236-.494-.467-.761-.715l-.423-.355-.219-.184-.229-.176-.474-.357-.503-.344-.258-.176-.268-.166-.549-.334c-.754-.424-1.566-.824-2.43-1.168-.863-.334-1.774-.621-2.714-.844-.644-.146-1.3-.25-1.96-.333-1.147 1.791-1.94 3.823-2.297 6.007.555-.233 1.142-.45 1.765-.626.684-.186 1.4-.33 2.137-.426.736-.082 1.488-.115 2.238-.098.75.027 1.492.109 2.217.232l.533.109.266.057.26.068.514.135.496.156.244.078.238.088.467.174c.298.129.594.248.871.379l.404.199.383.199c.244.139.485.264.699.398l.604.379.498.35.214.15.183.143.287.227.234.184v.004l-.291-.066-.361-.08-.229-.053-.263-.045-.618-.104-.737-.088c-.265-.031-.547-.041-.848-.062l-.463-.018-.488-.006c-.332 0-.68.02-1.043.033l-.551.047-.283.027-.287.037-.586.08-.6.111-.307.061-.307.07-.624.152c-.833.234-1.69.526-2.544.893-.85.373-1.696.814-2.518 1.32-.568.359-1.115.759-1.65 1.174.475 2.157 1.389 4.146 2.638 5.879.23-.566.496-1.146.818-1.721.353-.615.757-1.225 1.212-1.812.461-.578.969-1.133 1.513-1.652.548-.51 1.133-.977 1.731-1.402l.455-.299.227-.148.231-.135.46-.268.461-.242.229-.117.229-.105.452-.207c.303-.119.597-.244.885-.348l.427-.145.413-.131c.27-.074.528-.157.774-.213l.694-.158.6-.105.259-.045.229-.027.363-.045.297-.035.001.004-.253.158-.312.197-.198.127-.218.155-.511.363-.583.459c-.209.166-.416.357-.645.555l-.338.316-.351.34c-.235.236-.466.494-.714.762l-.355.422-.184.221-.176.229-.356.473-.346.502-.175.258-.166.268-.334.549c-.424.754-.824 1.566-1.168 2.43-.336.865-.623 1.775-.846 2.715-.15.661-.255 1.336-.34 2.014 1.798 1.146 3.838 1.936 6.03 2.287-.24-.568-.463-1.17-.644-1.809-.185-.684-.329-1.4-.424-2.137-.083-.736-.116-1.488-.099-2.238.027-.748.11-1.492.232-2.215l.109-.535.057-.266.067-.26.136-.514.156-.496.078-.244.088-.236.174-.467c.129-.299.248-.596.38-.871l.198-.404.199-.385c.14-.244.264-.484.398-.697l.379-.605.35-.496.151-.215.142-.184.227-.287.184-.234.001.012-.063.279-.081.362-.051.23-.045.262-.104.619-.088.736c-.031.266-.041.547-.062.848l-.017.463-.007.488c0 .334.02.68.033 1.043l.048.551.025.283.038.287.082.586.11.6.059.307.071.307.153.625c.233.832.524 1.689.892 2.543.373.85.814 1.697 1.32 2.518.364.575.769 1.13 1.19 1.672 2.155-.482 4.141-1.401 5.87-2.657-.568-.23-1.151-.497-1.729-.819-.614-.354-1.224-.758-1.812-1.213-.579-.461-1.134-.969-1.651-1.512-.512-.549-.979-1.133-1.403-1.732l-.3-.455-.148-.227-.135-.23-.268-.461-.241-.461-.117-.229-.105-.229-.208-.453c-.119-.303-.244-.596-.348-.885l-.145-.426-.131-.414c-.074-.27-.156-.527-.213-.773l-.158-.695-.105-.6-.044-.258-.028-.229-.045-.366-.031-.268.021.004.137.219.198.313.127.199.153.217.363.512.459.582c.166.211.358.416.556.645l.315.34.34.35c.236.234.495.467.762.713l.424.355.219.184.229.176.473.357.502.346.259.174.267.166.551.334c.752.424 1.565.824 2.428 1.168.865.336 1.776.623 2.715.846.656.148 1.325.254 1.998.339 1.138-1.795 1.921-3.83 2.269-6.016-.556.23-1.147.449-1.773.627zm-13.992-3.175l.003-.01.006.012-.008.01-.001-.012zm.003.02l-.001-.004.011-.008.006.01-.016.002z"/><g fill="#CC4E45"><path d="M11.817 6.579c.27.29.525.589.771.895 1.027-.336 2.118-.528 3.253-.544-.179-.62-.398-1.251-.649-1.885-1.385.101-2.696.459-3.892 1.027.175.168.351.332.517.507zM25.42 11.825l-.186.161c.649 1.008 1.135 2.129 1.429 3.327l.292-.113c-.105-1.384-.465-2.693-1.031-3.888-.166.172-.33.348-.504.513zM19.619 7.548c1.046.366 2.02.882 2.895 1.53.233-.445.454-.908.662-1.388-1.015-.879-2.19-1.569-3.478-2.031.005.242.014.484.008.727-.015.389-.045.777-.087 1.162zM5.031 16.777l.01.227.033-.243-.043.016zM6.38 12.259l.198.014c.651-1.084 1.486-2.042 2.457-2.842-.427-.222-.868-.432-1.326-.631-.878 1.011-1.571 2.182-2.038 3.466l.709-.007z"/></g></svg>
  </symbol>
</svg>
<svg xmlns="http://www.w3.org/2000/svg" style="display: none;"> 
  <symbol id="car" viewBox="0 0 32 32"><svg xmlns="http://www.w3.org/2000/svg" width="31.984" height="26"><path fill="#2D4552" d="M1.996 22.979l.024 2.99h6.958l.022-2.99c0 .007-6.995-.002-7.004 0zm27.992 0l-7.006.031.023 2.959h6.988l-.005-2.99z"/><path fill="#202D35" d="M2.971 25.969h1.036v-2.99h-1.036v2.99zm1.998 0h1.036v-2.99h-1.036v2.99zm2.023 0h.978v-2.99h-.978v2.99zm21.018-2.959v2.959h1.004v-2.959h-1.004zm-1.998 2.959h.974v-2.959h-.974v2.959zm-2.028.031h1.008v-2.99h-1.008v2.99z"/><path fill="#BF392C" d="M28 .994c0-.583-.399-.994-1.005-.994h-21.974c-.607 0-1.006.411-1.006.994v8.006h23.983l.002-8.006zm-26.977 11.01v8.98h29.969v-8.98h-29.969z"/><path fill="#fff" d="M26.013 1.966l-.006 7.044-20.005-.002-.024-7.044 20.035.002z"/><path fill="#F0F0F0" d="M6.01 1.966h9.998v7.046h-9.998v-7.046z"/><path fill="#E2574C" d="M27.96 9.009h-23.936l-2.945 2.988 29.895.007-3.014-2.995z"/><path fill="#CCD0D2" d="M0 20.983h31.984v1.995h-31.984v-1.995z"/><path fill="#fff" d="M2.996 18.989l6.002.028.023-5.054-6.032.004.007 5.022zm26.013-4.992l-6.033-.029.008 5.021 6.032.028-.007-5.02z"/><path fill="#F4B459" d="M4.002 17.983h3.984v-2.995h-3.984v2.995zm23.969-2.988l-3.962.002.008 2.965 3.962.029-.008-2.996z"/><path fill="#E4E7E7" d="M10.966 18.991h10.043v-2.027h-10.043v2.027zm0-5.024v2.029h10.043v-2.029h-10.043z"/></svg>
  </symbol>
</svg>
<svg xmlns="http://www.w3.org/2000/svg" style="display: none;"> 
  <symbol id="chalkboard" viewBox="0 0 32 32"><svg xmlns="http://www.w3.org/2000/svg" width="32" height="29.721"><path fill="#BDC2C5" d="M13.501 5.864l3.002-3.91 3.009 3.91h2.488l-4.083-5.31c-.754-.739-2.073-.739-2.827 0l-.092.103-3.998 5.207h2.501z"/><path fill="#F5BB69" d="M2 5.721h28c1.104 0 2 .896 2 2v20c0 1.105-.896 2-2 2h-28c-1.104 0-2-.895-2-2v-20c0-1.106.896-2 2-2z"/><path fill="#37A18E" d="M4 7.721h24c1.104 0 2 .896 2 2v16c0 1.105-.896 2-2 2h-24c-1.104 0-2-.895-2-2v-16c0-1.106.896-2 2-2z"/><path fill="#E4E7E7" d="M10.787 18.68c.584-.604 1.222-1.26 1.222-2.471 0-1.463-1.232-2.473-2.485-2.473-1.337 0-2.517.819-2.517 2.793 0 .262.073.354.282.354h.919c.219 0 .271-.131.271-.332 0-.688.49-1.213 1.055-1.213.501 0 .888.263.888.881 0 .617-.658 1.261-1.326 1.914-1.013.974-1.9 1.865-1.9 1.865-.094.084-.188.238-.188.5v.879c0 .273.042.347.282.347h4.322c.24 0 .303-.132.303-.347v-.975c0-.215-.062-.346-.303-.346h-2.204c0 .004.763-.744 1.379-1.376zm7.824-1.834h-1.744v-1.735c0-.232-.077-.375-.374-.375h-1.008c-.297 0-.374.143-.374.375v1.735h-1.73c-.232 0-.375.078-.375.375v1.011c0 .299.143.375.375.375h1.73v1.735c0 .232.077.375.374.375h1.008c.297 0 .374-.143.374-.375v-1.735h1.744c.231 0 .373-.076.373-.375v-1.011c0-.297-.14-.375-.373-.375zm6.002 3.216h-2.203s.763-.75 1.379-1.382c.584-.604 1.223-1.26 1.223-2.473 0-1.461-1.232-2.471-2.486-2.471-1.336 0-2.517.817-2.517 2.793 0 .262.073.356.282.356h.919c.22 0 .271-.133.271-.334 0-.688.49-1.213 1.056-1.213.501 0 .887.263.887.881 0 .617-.657 1.261-1.325 1.912-1.014.978-1.9 1.867-1.9 1.867-.094.084-.188.238-.188.5v.879c0 .273.042.347.282.347h4.321c.24 0 .304-.132.304-.347v-.975c-.002-.209-.064-.34-.305-.34z"/></svg>
  </symbol>
</svg>
<svg xmlns="http://www.w3.org/2000/svg" style="display: none;"> 
  <symbol id="clock" viewBox="0 0 32 32"><svg xmlns="http://www.w3.org/2000/svg" width="32" height="32.007"><path fill="#EBEBEB" d="M16 .003c8.837 0 16 7.163 16 16s-7.163 16.001-16 16.001-16-7.164-16-16.001 7.163-16 16-16z"/><path fill="#324D5B" d="M23 15.004h-6v-7.002c0-.553-.448-1-1-1s-1 .447-1 1v8c0 .553.448 1 1 1h7c.553 0 1-.447 1-1 0-.55-.447-.998-1-.998z"/><path fill="#E2574C" d="M16 .003c-8.837 0-16 7.163-16 16s7.163 16.001 16 16.001 16-7.164 16-16.001-7.163-16-16-16zm0 29.001c-7.168 0-13-5.832-13-13.001 0-7.168 5.832-13 13-13s13 5.832 13 13c0 7.169-5.832 13.001-13 13.001z"/></svg>
  </symbol>
</svg>
<svg xmlns="http://www.w3.org/2000/svg" style="display: none;"> 
  <symbol id="cloud-check" viewBox="0 0 32 32"><svg xmlns="http://www.w3.org/2000/svg" width="31.998" height="23"><path fill="#39B29D" d="M25.913 8.143c-.438-4.563-4.237-8.143-8.914-8.143-3.619 0-6.718 2.148-8.146 5.23-.43-.136-.878-.23-1.353-.23-2.485 0-4.5 2.016-4.5 4.5 0 .494.099.961.246 1.404-1.933 1.127-3.246 3.197-3.246 5.595 0 3.59 2.91 6.5 6.5 6.5v.001h17.999v-.001c4.143 0 7.499-3.357 7.499-7.5 0-3.657-2.62-6.694-6.085-7.356zm-4.253 2.931l-6.001 6.57c-.25.274-.587.37-.912.328-.369.105-.774.02-1.063-.298l-2.363-2.587c-.435-.475-.435-1.244 0-1.719.434-.475 1.137-.475 1.57 0l1.771 1.939 5.433-5.948c.433-.473 1.133-.473 1.565 0 .433.475.433 1.244 0 1.715z"/></svg>
  </symbol>
</svg>
<svg xmlns="http://www.w3.org/2000/svg" style="display: none;"> 
  <symbol id="cloud-down" viewBox="0 0 32 32"><svg xmlns="http://www.w3.org/2000/svg" width="31.998" height="23"><path fill="#39B29D" d="M25.913 8.143c-.439-4.563-4.238-8.143-8.914-8.143-3.62 0-6.718 2.148-8.146 5.23-.431-.137-.878-.23-1.353-.23-2.485 0-4.5 2.016-4.5 4.5 0 .494.099.961.246 1.404-1.934 1.127-3.246 3.196-3.246 5.594 0 3.59 2.91 6.5 6.5 6.5v.002h18v-.002c4.143 0 7.498-3.357 7.498-7.5-.001-3.656-2.62-6.693-6.085-7.355zm-5.146 6.48l-3.781 3.727c-.763.765-1.233.74-1.974 0l-3.781-3.727c-.542-.885-.099-1.609.987-1.609h1.781v-4.012c0-.553.448-1.002 1-1.002h2c.553 0 1 .449 1 1.002v4.012h1.779c1.086 0 1.532.724.989 1.609z"/></svg>
  </symbol>
</svg>
<svg xmlns="http://www.w3.org/2000/svg" style="display: none;"> 
  <symbol id="cloud-error" viewBox="0 0 32 32"><svg xmlns="http://www.w3.org/2000/svg" width="31.998" height="23"><path fill="#E2574C" d="M25.913 8.143c-.438-4.563-4.237-8.143-8.914-8.143-3.619 0-6.718 2.148-8.146 5.23-.43-.136-.878-.23-1.353-.23-2.485 0-4.5 2.016-4.5 4.5 0 .494.099.961.246 1.404-1.933 1.127-3.246 3.197-3.246 5.595 0 3.59 2.91 6.5 6.5 6.5v.001h17.999v-.001c4.143 0 7.499-3.357 7.499-7.5 0-3.657-2.62-6.694-6.085-7.356zm-5.303 9.466c-.472.473-1.236.473-1.708 0l-2.425-2.424-2.394 2.395c-.471.47-1.232.47-1.703 0-.47-.471-.47-1.232 0-1.703l2.394-2.394-2.424-2.424c-.472-.473-.472-1.237 0-1.709.472-.473 1.236-.473 1.708 0l2.424 2.425 2.426-2.426c.471-.471 1.232-.471 1.703 0s.471 1.233 0 1.703l-2.426 2.426 2.425 2.424c.473.471.473 1.237 0 1.707z"/></svg>
  </symbol>
</svg>
<svg xmlns="http://www.w3.org/2000/svg" style="display: none;"> 
  <symbol id="cloud-refresh" viewBox="0 0 32 32"><svg xmlns="http://www.w3.org/2000/svg" width="31.998" height="23"><path fill="#39B29D" d="M25.913 8.143c-.438-4.563-4.237-8.143-8.914-8.143-3.619 0-6.718 2.148-8.146 5.23-.43-.136-.878-.23-1.353-.23-2.485 0-4.5 2.016-4.5 4.5 0 .494.099.961.246 1.404-1.933 1.127-3.246 3.197-3.246 5.595 0 3.59 2.91 6.5 6.5 6.5v.001h17.999v-.001c4.143 0 7.499-3.357 7.499-7.5 0-3.657-2.62-6.694-6.085-7.356zm-15.072 7.504l-1.86-1.847c-.268-.438-.049-.795.485-.795h.814c.071-3.327 2.754-6.005 6.062-6.005 1.677 0 3.193.688 4.291 1.799l-1.359 1.316c-.747-.755-1.792-1.217-2.932-1.222-2.295-.011-4.094 1.862-4.157 4.112h1.003c.532 0 .752.357.485.795l-1.861 1.847c-.267.438-.704.438-.971 0zm12.158-2.653h-.816c-.071 3.328-2.763 6.006-6.079 6.006-1.681 0-3.201-.688-4.303-1.799l1.363-1.315c.749.755 1.798 1.216 2.939 1.221 2.302.013 4.104-1.862 4.168-4.112h-1.004c-.536 0-.755-.357-.487-.795l1.865-1.847c.269-.437.706-.437.974 0l1.865 1.847c.269.437.05.794-.485.794z"/></svg>
  </symbol>
</svg>
<svg xmlns="http://www.w3.org/2000/svg" style="display: none;"> 
  <symbol id="cloud-up" viewBox="0 0 32 32"><svg xmlns="http://www.w3.org/2000/svg" width="31.998" height="23"><path fill="#39B29D" d="M25.913 8.143c-.438-4.563-4.237-8.143-8.914-8.143-3.619 0-6.718 2.148-8.146 5.23-.43-.137-.878-.23-1.353-.23-2.485 0-4.5 2.016-4.5 4.5 0 .494.099.961.246 1.404-1.933 1.127-3.246 3.196-3.246 5.594 0 3.59 2.91 6.5 6.5 6.5v.002h17.999v-.002c4.144 0 7.499-3.357 7.499-7.5 0-3.656-2.62-6.693-6.085-7.355zm-6.134 5.757h-1.78v4.012c0 .553-.446 1.002-1 1.002h-2c-.552 0-1-.449-1-1.002v-4.012h-1.781c-1.086 0-1.529-.725-.987-1.609l3.781-3.727c.741-.74 1.21-.765 1.974 0l3.781 3.727c.544.885.098 1.609-.988 1.609z"/></svg>
  </symbol>
</svg>
<svg xmlns="http://www.w3.org/2000/svg" style="display: none;"> 
  <symbol id="donut" viewBox="0 0 32 32"><svg xmlns="http://www.w3.org/2000/svg" width="32" height="32"><path fill="#E89C25" d="M16 0c-8.837 0-16 7.164-16 16s7.163 16 16 16 16-7.164 16-16-7.163-16-16-16zm0 22c-3.313 0-6-2.686-6-6s2.687-6 6-6 6 2.686 6 6-2.687 6-6 6z"/><path fill="#7A482E" d="M31.866 17.968c.08-.646.134-1.298.134-1.964-.001-2.542-.608-4.937-1.661-7.071-2.611-5.287-8.043-8.933-14.339-8.933-8.837 0-16 7.164-16 16 0 .328.03.65.049.974.658-.024 1.369-.085 2.002-.204 4.498-.834 4.932-2.133 8.455-3.18.931-2.113 3.038-3.59 5.494-3.59 3.313 0 6 2.686 6 6l-.007.136c2.765 1.603 8.914 1.809 9.873 1.832z"/><path fill="#946C57" d="M16 4.629c6.904 0 12.536 5.387 12.959 12.186.017-.272.041-.541.041-.815 0-7.18-5.82-13-13-13s-13 5.82-13 13c0 .274.024.543.041.814.423-6.798 6.054-12.185 12.959-12.185z"/><g fill="#BB7E1F"><path d="M23 15c0-3.314-2.687-6-6-6-1.911 0-3.61.896-4.71 2.29 1.022-.806 2.309-1.29 3.71-1.29 3.313 0 6 2.686 6 6 0 1.402-.484 2.688-1.29 3.71 1.393-1.099 2.29-2.798 2.29-4.71zM17 31c-8.837 0-16-7.164-16-16 0-4.164 1.604-7.943 4.21-10.79-3.194 2.925-5.21 7.116-5.21 11.79 0 8.836 7.163 16 16 16 4.673 0 8.864-2.016 11.79-5.21-2.847 2.606-6.626 4.21-10.79 4.21z"/></g><path fill="#623A25" d="M21.993 16.136c.242.141.517.267.805.386.128-.487.202-.995.202-1.522 0-3.314-2.687-6-6-6-1.911 0-3.61.896-4.71 2.29l.135-.089c.173-.13.353-.249.539-.359l.258-.146c.191-.101.389-.188.591-.267l.283-.11c.213-.072.434-.125.657-.173l.273-.062c.318-.053.642-.084.974-.084 3.313 0 6 2.686 6 6l-.007.136z"/><path fill="#623A25" d="M1.123 16.898c-.074-.624-.123-1.255-.123-1.898 0-4.164 1.604-7.943 4.21-10.79-.398.364-.777.749-1.137 1.15l-.007.008c-.35.392-.68.803-.991 1.229l-.04.053c-.293.405-.565.825-.821 1.256l-.078.13c-.235.405-.446.823-.645 1.25l-.108.224c-.178.398-.332.808-.477 1.222l-.119.324c-.127.39-.229.791-.327 1.194l-.105.41c-.085.4-.144.811-.198 1.221l-.065.43c-.06.554-.092 1.118-.092 1.689 0 .328.03.65.049.974.35-.013.714-.038 1.074-.076z"/></svg>
  </symbol>
</svg>
<svg xmlns="http://www.w3.org/2000/svg" style="display: none;"> 
  <symbol id="drop" viewBox="0 0 32 32"><svg xmlns="http://www.w3.org/2000/svg" width="24" height="32"><path fill="#3CAED6" d="M12 0s12 13.373 12 20-5.372 12-12 12c-6.627 0-12-5.373-12-12l12-20z"/><path fill="#63BFDE" d="M16.994 16c-1.108 0-2.006.898-2.006 2.007 0 1.107.897 2.005 2.006 2.005 1.107 0 2.006-.897 2.006-2.005 0-1.109-.898-2.007-2.006-2.007z"/><path fill="#369DC0" d="M13 31c-6.627 0-12-5.373-12-12 0-5.497 8.25-15.627 11.066-18.926l-.066-.074s-12 13.373-12 20 5.373 12 12 12c3.568 0 6.764-1.566 8.961-4.039-2.119 1.885-4.901 3.039-7.961 3.039z"/></svg>
  </symbol>
</svg>
<svg xmlns="http://www.w3.org/2000/svg" style="display: none;"> 
  <symbol id="eye" viewBox="0 0 32 32"><svg xmlns="http://www.w3.org/2000/svg" width="32" height="32.007"><path fill="#E4E7E7" d="M16 .004c8.837 0 16 7.163 16 16 0 8.836-7.163 16-16 16s-16-7.164-16-16c0-8.837 7.163-16 16-16z"/><path fill="#26A6D1" d="M16 5.003c6.075 0 11 4.925 11 11 0 6.074-4.925 11-11 11s-11-4.926-11-11c0-6.075 4.925-11 11-11z"/><path fill="#324D5B" d="M16 10.003c3.313 0 6 2.686 6 6s-2.687 6-6 6-6-2.686-6-6 2.687-6 6-6z"/><path fill="#D4EDF6" d="M20.5 10.003c1.381 0 2.5 1.119 2.5 2.5s-1.119 2.5-2.5 2.5-2.5-1.119-2.5-2.5 1.119-2.5 2.5-2.5z"/><path fill="#D6DBDE" d="M21.831 14.613c-.405-1.704-1.532-3.126-3.046-3.921-.481.455-.785 1.096-.785 1.811 0 1.381 1.119 2.5 2.5 2.5.491 0 .945-.146 1.331-.39z"/><path fill="#2296BD" d="M17 26.003c-6.075 0-11-4.926-11-11 0-2.783 1.042-5.317 2.746-7.254-2.292 2.016-3.746 4.962-3.746 8.254 0 6.074 4.925 11 11 11 3.292 0 6.238-1.454 8.254-3.746-1.938 1.704-4.471 2.746-7.254 2.746z"/></svg>
  </symbol>
</svg>
<svg xmlns="http://www.w3.org/2000/svg" style="display: none;"> 
  <symbol id="flag" viewBox="0 0 32 32"><svg xmlns="http://www.w3.org/2000/svg" width="27" height="32"><path fill="#324D5B" d="M2 0v32h-2v-32h2z"/><path fill="#CB4E44" d="M14 5.001h13v18.999h-13v-18.999z"/><path fill="#D8B863" d="M17 5.001v2.999h10v-2.999h-10zm-3 18.999h13v-3h-13v3z"/><path fill="#A28A4A" d="M14 21h3l-3 3v-3z"/><path fill="#E2574C" d="M2 2h15v19h-15v-19z"/><path fill="#F1CD6E" d="M2 2v3.001h15v-3.001h-15zm0 19h15v-3h-15v3z"/></svg>
  </symbol>
</svg>
<svg xmlns="http://www.w3.org/2000/svg" style="display: none;"> 
  <symbol id="glasses" viewBox="0 0 32 32"><svg xmlns="http://www.w3.org/2000/svg" width="32" height="29"><path fill="#2494BC" d="M31.984 4c0-2.485-1.983-4-4.469-4h-1c-.828 0-1.5.672-1.5 1.5 0 .829.672 1.5 1.5 1.5h.5c1.104 0 2 .896 2 2v18h3l-.051-18c.018-.166.02-.828.02-1z"/><path fill="#2494BC" d="M.047 4c0-2.485 1.983-4 4.469-4h1c.828 0 1.5.672 1.5 1.5 0 .829-.672 1.5-1.5 1.5h-.5c-1.104 0-2 .896-2 2v18h-3l.051-18c-.019-.166-.02-.828-.02-1z"/><path fill="#26A6D1" d="M27.016 15h-5c-2.502 0-4.556 1.842-4.925 4.239-.312-.149-.679-.239-1.076-.239s-.766.09-1.076.239c-.369-2.397-2.423-4.239-4.924-4.239h-5c-2.762 0-5 2.238-5 5v4c0 2.763 2.238 5 5 5h5c2.762 0 5-2.237 5-5v-1.778c.296-.133.63-.222 1-.222.369 0 .704.089 1 .222v1.778c0 2.763 2.237 5 5 5h5c2.762 0 5-2.237 5-5v-4c.001-2.762-2.238-5-4.999-5zm-15.001 9c0 1.104-.896 2-2 2h-5c-1.104 0-2-.896-2-2v-4c0-1.104.896-2 2-2h5c1.104 0 2 .896 2 2v4zm17.001 0c0 1.104-.896 2-2 2h-5c-1.104 0-2-.896-2-2v-4c0-1.104.896-2 2-2h5c1.104 0 2 .896 2 2v4z"/></svg>
  </symbol>
</svg>
<svg xmlns="http://www.w3.org/2000/svg" style="display: none;"> 
  <symbol id="glove" viewBox="0 0 32 32"><svg xmlns="http://www.w3.org/2000/svg" width="22" height="32"><path fill="#BF392B" d="M5 30.001l-2-12.001c0-1.104.896-1.999 2-1.999v-1c0-1.105.896-2.001 2-2.001h1c0-1.104.896-1.999 2-1.999v2c.366 0 .705.105 1 .277v-1.278c0-1.104.896-2 2-2h1c1.104 0 2 .896 2 2v4.001l2-14c0-.738.404-1.376 1-1.723-.295-.173-.634-.278-1-.278h-1c-1.104 0-2 .896-2 2.001l-.208 4.999h-3.792c-1.104 0-2 .896-2 2.001v1.277c-.295-.173-.634-.278-1-.278h-1c-1.104 0-2 .896-2 2h-1c-1.104 0-2 .896-2 2v1.001c-1.104 0-2 .895-2 1.999l2 13.001c0 1.103.896 1.999 2 1.999h3c-1.104 0-2-.896-2-1.999z"/><path fill="#E2574C" d="M20 0h-1c-1.104 0-2 .896-2 2.001l-1 12v-4.001c0-1.104-.896-2-2-2h-1c-1.104 0-2 .896-2 2v1.278c-.295-.172-.634-.277-1-.277h-1c-1.104 0-2 .895-2 1.999h-1c-1.104 0-2 .896-2 2.001v1c-1.104 0-2 .896-2 1.999l2 12.001c0 1.103.896 1.999 2 1.999h14c1.104 0 2-.896 2-1.999v-28c0-1.105-.896-2.001-2-2.001z"/><path fill="#EFC75E" d="M11.232 18.859h-.668l.254-1.52c.022-.148.035-.339-.23-.339h-.852c-.161 0-.312.063-.334.286l-.254 1.572h-1.357l.253-1.521c.013-.146.022-.337-.241-.337h-.841c-.161 0-.321.062-.346.286l-.253 1.571h-.668c-.161 0-.265.063-.288.254l-.092.605c-.023.148-.035.299.207.299h.668l-.139.955h-.667c-.162 0-.266.063-.288.254l-.093.605c-.022.148-.034.298.208.298h.667l-.253 1.519c-.012.148-.023.34.242.34h.84c.161 0 .322-.074.346-.297l.254-1.562h1.358l-.254 1.519c-.022.148-.034.34.229.34h.842c.16 0 .322-.074.345-.297l.254-1.562h.668c.161 0 .265-.073.299-.256l.081-.615c.021-.139.046-.286-.208-.286h-.667l.068-.479.068-.479h.668c.162 0 .266-.074.299-.255l.082-.616c.024-.132.047-.282-.207-.282zm-2.394 2.116h-1.358l.139-.957h1.347l-.128.957zm7.834 1.527h-.806v-5.214c-.013-.224-.14-.276-.334-.276h-1.117c-.196 0-.322.055-.334.276 0 .797-.507.894-.726.894h-.254c-.265 0-.334.105-.334.308v.86c0 .201.069.308.334.308h.979v2.846h-.979c-.265 0-.334.117-.334.31v.869c0 .191.069.309.334.309h3.569c.265 0 .334-.116.334-.309v-.869c.002-.195-.066-.312-.332-.312z"/></svg>
  </symbol>
</svg>
<svg xmlns="http://www.w3.org/2000/svg" style="display: none;"> 
  <symbol id="hamburger" viewBox="0 0 32 32"><svg xmlns="http://www.w3.org/2000/svg" width="32" height="30"><path fill="#DDAF6D" d="M18 0h-4c-5.523 0-13 4.478-13 10v1c0 .553.447 1 1 1h28c.553 0 1-.447 1-1v-1c0-5.522-7.477-10-13-10zm-17 28c0 1.105.896 2 2 2h26c1.104 0 2-.895 2-2v-2h-30v2z"/><path fill="#BB6F39" d="M2 22h28c1.104 0 2 .896 2 2 0 1.105-.896 2-2 2h-28c-1.104 0-2-.895-2-2 0-1.104.896-2 2-2z"/><path fill="#EFC75E" d="M2 18h28v4h-2l-3 3-2.996-3h-20.004v-4z"/><path fill="#3DB39E" d="M30 15.051v-.051h-28v.051c-1.141.231-2 1.239-2 2.449 0 1.381 1.119 2.5 2.5 2.5 1.209 0 2.218-.857 2.449-2h4.051c0 1.104 1.119 2 2.5 2s2.5-.896 2.5-2h4c0 1.104 1.119 2 2.5 2s2.5-.896 2.5-2h4.051c.231 1.143 1.239 2 2.449 2 1.381 0 2.5-1.119 2.5-2.5 0-1.21-.857-2.218-2-2.449z"/><path fill="#BF392C" d="M2 12h28v3h-28v-3z"/><g fill="#C69D63"><path d="M2 12h2c-.553 0-1-.447-1-1v-1c0-5.522 7.477-10 13-10h-2c-5.523 0-13 4.478-13 10v1c0 .553.447 1 1 1zM3 28v-2h-2v2c0 1.105.896 2 2 2h2c-1.104 0-2-.895-2-2z"/></g><path fill="#A86433" d="M2 24c0-1.104.896-2 2-2h-2c-1.104 0-2 .896-2 2 0 1.105.896 2 2 2h2c-1.104 0-2-.895-2-2z"/><g fill="#37A18E"><path d="M2 17.5c0-1.21.859-2.218 2-2.449v-.051h-2v.051c-1.141.231-2 1.239-2 2.449 0 1.381 1.119 2.5 2.5 2.5.354 0 .688-.081.994-.214-.879-.388-1.494-1.265-1.494-2.286zM11 18h-2c0 1.104 1.119 2 2.5 2 .356 0 .693-.062 1-.169-.882-.31-1.5-1.011-1.5-1.831zM20 18h-2c0 1.104 1.119 2 2.5 2 .355 0 .693-.062 1-.169-.882-.31-1.5-1.011-1.5-1.831zM29.051 18h-2c.231 1.143 1.239 2 2.449 2 .357 0 .697-.078 1.006-.214-.736-.321-1.291-.979-1.455-1.786z"/></g></svg>
  </symbol>
</svg>
<svg xmlns="http://www.w3.org/2000/svg" style="display: none;"> 
  <symbol id="hand" viewBox="0 0 32 32"><svg xmlns="http://www.w3.org/2000/svg" width="26.988" height="32"><path fill="#E49C86" d="M14.995 25v5.002c0 1.104-.896 2-2 2h-8c-1.104 0-2-.896-2-2v-5.002h12z"/><path fill="#CD8C78" d="M2.995 29.692c.364.19.711.308 1.008.308h10.007c.29 0 .63-.095.985-.248v-3.752h-12v3.692z"/><path fill="#E7A793" d="M26.725 16.906s-1.592-2.196-6.355.109c-.661.41-1.553.943-2.39 1.464v-16.481c0-1.104-.866-1.998-1.977-1.998-1.108 0-2.008.895-2.008 1.998v11.015h-10.008v-8.003c0-1.103-.868-1.996-1.979-1.996-1.108 0-2.008.894-2.008 1.996v19.009c0 1.404 2.582 3.981 4.002 3.981h10.007c1.069 0 2.794-1.209 3.583-2.406.586-.635 3.233-3.311 8.412-5.922.944-.559 1.266-1.797.721-2.766z"/><path fill="#BA8776" d="M3.995 12.993h8l.014 7.963c0 1.135-.897 2.053-2.007 2.053s-2.007-.918-2.007-2.053c0 1.135-.898 2.053-2.007 2.053s-2.008-.918-2.008-2.053l.015-7.963z"/><path fill="#E9B09E" d="M10.992 10c-1.105 0-2.001.923-2.001 2.062 0-1.14-.896-2.062-2.001-2.062-1.106 0-2.001.923-2.001 2.062v6.876c0 1.14.895 2.062 2.001 2.062 1.104 0 2.002-.922 2.002-2.062 0 1.14.896 2.062 2.001 2.062 1.104 0 2.001-.922 2.001-2.062v-6.876c-.001-1.139-.896-2.062-2.002-2.062z"/><path fill="#EAC3B6" d="M10.995 17c-1.104 0-2 .896-2 2 0-1.104-.896-2-2-2s-2 .896-2 2v1c0 1.104.896 2 2 2s2-.896 2-2c0 1.104.896 2 2 2s2-.896 2-2v-1c0-1.104-.895-2-2-2z"/></svg>
  </symbol>
</svg>
<svg xmlns="http://www.w3.org/2000/svg" style="display: none;"> 
  <symbol id="hotdog" viewBox="0 0 32 32"><svg xmlns="http://www.w3.org/2000/svg" width="32" height="32"><g fill="#F6C37A"><path d="M3.664 22.673l18.772-18.772c.209-.38.168-.86-.154-1.183-1.951-1.952-5.117-1.952-7.07 0l-12.729 12.729c-1.952 1.952-1.952 5.118 0 7.071.322.322.801.363 1.181.155zM28.398 9.264l-19.339 19.339c-.141.366-.067.794.227 1.089 1.992 1.992 5.223 1.992 7.215 0l12.986-12.986c1.992-1.992 1.992-5.222 0-7.214-.295-.295-.723-.368-1.089-.228z"/></g><path fill="#DDAF6D" d="M10.457 28.626c-.398-.398-.398-1.044 0-1.443l17.9-17.9c-.113.05-.221.116-.313.208l-18.758 18.757c-.398.399-.398 1.045 0 1.443 1.992 1.992 5.223 1.992 7.214 0l.595-.595c-1.997 1.487-4.825 1.342-6.638-.47z"/><path fill="#DDAF6D" d="M3.661 22.675l.986-.985c-.341.104-.723.033-.993-.236-1.803-1.804-1.861-4.855-.325-6.852l-.846.846c-1.952 1.952-1.952 5.118 0 7.071.321.32.799.362 1.178.156z"/><path fill="#E37948" d="M30.828 1.171c1.563 1.563 1.563 4.099 0 5.663l-23.994 23.993c-1.563 1.564-4.099 1.564-5.662 0-1.563-1.563-1.563-4.099 0-5.662l23.994-23.994c1.563-1.564 4.099-1.564 5.662 0z"/><path fill="#EFC75E" d="M22.988 6.012c-.553 0-1.001.448-1.001 1.001v1.992h-2.008c-.423 0-.779.262-.927.631-.051.121-.08.253-.08.393v1.993h-1.939l-.045-.009c-.141 0-.275.031-.396.084-.369.148-.629.505-.629.926l.024.126v1.856h-2.007c-.422 0-.778.262-.927.63-.052.121-.081.254-.081.395v1.993h-1.935l-.048-.01c-.143 0-.277.031-.399.085-.368.147-.628.505-.628.925l.025.126v1.858h-2.007c-.553 0-1.002.447-1.002 1s.449 1.002 1.002 1.002h2.966l.044.009c.553 0 1.001-.448 1.001-1.001v-1.992h1.934l.048.01c.553 0 1.002-.449 1.002-1.002v-2.024h1.971l.043.009c.554 0 1.002-.447 1.002-1v-1.993h1.938l.044.009c.553 0 1-.447 1-1v-2.025h1.967l.049.01c.554 0 1.002-.448 1.002-1.001v-3.005c-.001-.553-.449-1.001-1.003-1.001z"/><path fill="#CC6D41" d="M7.834 29.827c-1.563 1.564-4.099 1.564-5.662 0-1.563-1.563-1.563-4.099 0-5.662l-1 1c-1.563 1.563-1.563 4.099 0 5.662 1.563 1.564 4.099 1.564 5.662 0l23.994-23.993-22.994 22.993z"/></svg>
  </symbol>
</svg>
<svg xmlns="http://www.w3.org/2000/svg" style="display: none;"> 
  <symbol id="knife" viewBox="0 0 32 32"><svg xmlns="http://www.w3.org/2000/svg" width="32" height="32.007"><path fill="#CCCFD1" d="M5.996.015c1.959 0 20.753 2.035 20.753 2.035l2.247 5.965h-20s-9-2.016-9-4c0-1.892 4.041-4 6-4z"/><path fill="#B7BABC" d="M25.857 1.954c-1.461-.157-4.54-.486-7.861-.83v6.891h7l1.753-5.965-.892-.096z"/><path fill="#D9DCDD" d="M6.419 7.58c1.081.272 2.033.435 2.577.435h16.799c-.927-2.282-4.961-4-9.799-4-4.524 0-8.343 1.504-9.577 3.565z"/><path fill="#C2C4C5" d="M17.996 4.119v3.896h7v-1.177c-1.339-1.381-3.91-2.405-7-2.719z"/><path fill="#BF392C" d="M3.768 21.8l18.044-18.045c2.332-2.331 6.112-2.331 8.444 0 2.332 2.332 2.332 6.113 0 8.445l-18.044 18.045c-2.332 2.331-6.112 2.331-8.444 0-2.332-2.332-2.332-6.113 0-8.445z"/><path fill="#E4E5E5" d="M9.984 25.494l.734-.734c.404-.404.404-1.062 0-1.468-.406-.405-1.063-.405-1.469 0l-.734.733-.733-.733c-.405-.405-1.062-.405-1.469 0-.405.405-.405 1.063 0 1.468l.734.734-.734.734c-.405.405-.405 1.062 0 1.468.406.405 1.063.405 1.469 0l.733-.733.734.733c.405.405 1.062.405 1.469 0 .404-.405.404-1.062 0-1.468l-.734-.734z"/></svg>
  </symbol>
</svg>
<svg xmlns="http://www.w3.org/2000/svg" style="display: none;"> 
  <symbol id="label" viewBox="0 0 32 32"><svg xmlns="http://www.w3.org/2000/svg" width="31.987" height="31.99" viewBox="0.007 0 31.987 31.99" enable-background="new 0.007 0 31.987 31.99"><path fill-rule="evenodd" clip-rule="evenodd" fill="#26A6D1" d="M.801 18.141l13.11 13.058c1.06 1.056 2.776 1.056 3.835 0l12.893-12.728c1.355-1.351 1.355-4.315 1.355-4.952v-10.802c0-1.492-1.085-2.717-2.582-2.717l-11.427.016c-1.808 0-3.163.45-4.519 1.801l-12.665 12.504c-1.059 1.055-1.059 2.765 0 3.82z"/><path fill="#156E8D" d="M25.494 9.002c-1.379 0-2.5-1.121-2.5-2.5s1.121-2.5 2.5-2.5 2.5 1.122 2.5 2.5c0 1.379-1.121 2.5-2.5 2.5z"/><path fill-rule="evenodd" clip-rule="evenodd" fill="#93D3E8" d="M18.1 8.285c-.389-.388-1.017-.388-1.404 0l-8.419 8.418c-.388.388-.388 1.016 0 1.404.388.387 1.016.387 1.403 0l8.42-8.42c.386-.386.386-1.015 0-1.402zm2.805 2.806c-.388-.388-1.016-.388-1.403 0l-8.419 8.419c-.388.388-.388 1.016 0 1.404.388.387 1.016.387 1.403 0l8.419-8.42c.388-.388.388-1.016 0-1.403zm2.807 2.806c-.388-.387-1.016-.387-1.403 0l-8.42 8.419c-.387.387-.387 1.016 0 1.402.389.389 1.016.389 1.404 0l8.419-8.418c.388-.387.388-1.015 0-1.403z"/><path fill-rule="evenodd" clip-rule="evenodd" fill="#fff" d="M25.494 5.002c.828 0 1.5.671 1.5 1.5 0 .827-.672 1.5-1.5 1.5s-1.5-.672-1.5-1.5.672-1.5 1.5-1.5z"/></svg>
  </symbol>
</svg>
<svg xmlns="http://www.w3.org/2000/svg" style="display: none;"> 
  <symbol id="map" viewBox="0 0 32 32"><svg xmlns="http://www.w3.org/2000/svg" width="31.922" height="31.986"><path fill="#4ED5BD" d="M31.922 31.966l-6.986-10.973-17.902.021-7.034 10.952 16.039.021 15.883-.021z"/><path fill="#F4B459" d="M16-.001c-5.52 0-9.995 4.233-9.995 9.455 0 .208.189 3.026.924 4.296 2.473 5.364 9.061 11.278 9.071 11.257.009.031 6.625-5.918 9.086-11.287.859-1.733.909-4.164.909-4.266 0-5.221-4.475-9.455-9.995-9.455zm-.001 14.004c-2.209 0-4-1.791-4-4s1.791-4 4-4 4 1.791 4 4-1.791 4-4 4z"/><path fill="#CCA032" d="M15.999 5.003c-2.761 0-5 2.238-5 5 0 2.763 2.239 5 5 5 2.763 0 5-2.238 5-5 0-2.761-2.237-5-5-5zm0 8c-1.657 0-3-1.343-3-3 0-1.656 1.343-3 3-3s3 1.344 3 3c0 1.657-1.343 3-3 3z"/><path fill="#26A6D1" d="M22.999 28.003c-1.251.559-3.952 1.016-5.017 1.012-.918-.006-3.708-.592-4.983-1.012-.122-.039-3.574-1.736-6-2-2.524-.271-3 0-3 0l-.862 1.078-3.137 4.885 16.039.021 15.883-.021-4.291-6.738c-1.111.675-4.413 2.677-4.632 2.775z"/></svg>
  </symbol>
</svg>
<svg xmlns="http://www.w3.org/2000/svg" style="display: none;"> 
  <symbol id="map2" viewBox="0 0 32 32"><svg xmlns="http://www.w3.org/2000/svg" width="32" height="32.007" viewBox="-0.042 -0.007 32 32.007" enable-background="new -0.042 -0.007 32 32.007"><path fill="#26A6D1" d="M-.042 0l7.971 3 8.035-3 7.995 3 8-3v29l-8.02 3-8.005-3-7.991 3-7.984-3v-29z"/><polygon fill="#2295BC" points="7.958,31.987 15.934,28.993 15.958,29.002 15.958,-0.005 7.958,2.982"/><polygon fill="#2295BC" points="23.959,2.993 23.959,31.985 31.959,28.993 31.959,-0.007"/><path fill="#EFC75E" d="M23.959 2.993l-7.995-3-3.077 1.148c-5.179 5.964-3.245 10.977 3.62 17.196 5.791 5.245 11.777 8.315 15.451 5.655v-24l-7.999 3.001z"/><path fill="#3DB39E" d="M31.959-.007l-8 3-7.995-3-.011.004c-7.127 6.041-3.635 9.497 2.592 15.229 5.029 4.631 9.055 7.32 13.414 4.768-.045-1.996 0-19.99 0-20.001z"/><path fill="#D7B354" d="M23.959 2.993v20.655c3.104 1.519 5.922 1.85 8 .345v-24l-8 3z"/><path fill="#D7B354" d="M15.958-.005l-1.684.629-1.387.518c-5.035 5.797-3.333 10.699 3.071 16.68v-17.827z"/><path fill="#37A18E" d="M31.959-.007l-8 3v16.511c2.749 1.64 5.312 2.063 8 .489-.045-1.995 0-19.989 0-20z"/><path fill="#37A18E" d="M15.958-.005l-.003.001-.002.001c-6.06 5.136-4.441 8.404.005 12.79v-12.792z"/></svg>
  </symbol>
</svg>
<svg xmlns="http://www.w3.org/2000/svg" style="display: none;"> 
  <symbol id="marker" viewBox="0 0 32 32"><svg xmlns="http://www.w3.org/2000/svg" width="24.986" height="32.01"><path fill="#51BBA8" d="M12.492-.005c-6.899 0-12.493 5.418-12.493 12.102 0 .13.062 3.24 1.136 5.458 3.077 6.875 11.346 14.488 11.357 14.449.014.026 8.248-7.545 11.34-14.408.918-1.627 1.154-5.234 1.154-5.5.001-6.683-5.594-12.101-12.494-12.101zm.002 16.004c-1.935 0-3.5-1.566-3.5-3.499 0-1.934 1.565-3.501 3.5-3.501 1.934 0 3.5 1.567 3.5 3.501 0 1.933-1.566 3.499-3.5 3.499z"/><path fill="#2B7D6E" d="M12.494 7c-3.037 0-5.5 2.462-5.5 5.5 0 3.037 2.463 5.499 5.5 5.499s5.5-2.462 5.5-5.499c0-3.038-2.463-5.5-5.5-5.5zm0 8.999c-1.935 0-3.5-1.566-3.5-3.499 0-1.934 1.565-3.501 3.5-3.501 1.934 0 3.5 1.567 3.5 3.501 0 1.933-1.566 3.499-3.5 3.499z"/></svg>
  </symbol>
</svg>
<svg xmlns="http://www.w3.org/2000/svg" style="display: none;"> 
  <symbol id="mcfly" viewBox="0 0 32 32"><svg xmlns="http://www.w3.org/2000/svg" width="28" height="32"><path fill="#E2574C" d="M27 14c-1.104 0-2-.896-2-2v-9c0-.553-.447-1-1-1h-20c-.553 0-1 .447-1 1v9c0 1.104-.896 2-2 2h-1v16c0 1.105.896 2 2 2h24c1.104 0 2-.895 2-2v-16h-1z"/><g fill="#BB493F"><path d="M6 24l-6 6c0 1.105.896 2 2 2h8v-8h-4zM18 24v8h8c1.104 0 2-.895 2-2l-6-6h-4z"/></g><path fill="#C5493E" d="M25 6h-22v1h22v-1zm0 5h-22v1h22v-1zm-25 5v1h28v-1h-28zm0 6h28v-1h-28v1zm0 5h28v-1h-28v1z"/><path fill="#DB5145" d="M14.085 11h.916v21h-.916v-21z"/><path fill="#B5463D" d="M9 0h10c1.104 0 2 .895 2 2v3c0 1.105-4.896 6-6 6h-2c-1.104 0-6-4.895-6-6v-3c0-1.105.896-2 2-2z"/><path fill="#88342E" d="M11.429 2h5.144c.789 0 1.429.537 1.429 1.199v.801c0 .662-2.777 4-3.566 4h-.867c-.788 0-3.566-3.338-3.566-4v-.8c-.003-.662.637-1.2 1.426-1.2z"/><g fill="#AF4437"><polygon points="10,27 10,26 4,26 3,27"/><polygon points="24,26 18,26 18,27 25,27"/></g><path fill="#A14034" d="M13 11h1.084v21h-1.084v-21z"/><g fill="#C4463A"><rect x="14.085" y="26" width=".916" height="1"/><rect x="14.085" y="21" width=".916" height="1"/><rect x="14.085" y="16" width=".916" height="1"/><rect x="14.085" y="11" width=".916" height="1"/></g><g fill="#E2574C"><path d="M27.82 30.82l-5.82-5.82h-3v7h7c.811 0 1.507-.485 1.82-1.18zM6 25l-5.82 5.82c.313.695 1.009 1.18 1.82 1.18h7v-7h-3z"/></g></svg>
  </symbol>
</svg>
<svg xmlns="http://www.w3.org/2000/svg" style="display: none;"> 
  <symbol id="medicine" viewBox="0 0 32 32"><svg xmlns="http://www.w3.org/2000/svg" width="32" height="29.002"><path fill="#324D5B" d="M20 0h-8c-1.104 0-2 .896-2 2v3h2v-2c0-.552.447-1 1-1h6c.553 0 1 .448 1 1v2h2v-3c0-1.103-.896-2-2-2z"/><path fill="#E2574C" d="M2 5.001h28c1.104 0 2 .896 2 2.001v20c0 1.104-.896 2-2 2h-28c-1.104 0-2-.896-2-2v-20c0-1.105.896-2.001 2-2.001z"/><path fill="#fff" d="M21 15h-3v-2.998c0-.553-.447-1.002-1-1.002h-2c-.553 0-1 .449-1 1.002v2.998h-3c-.553 0-1 .449-1 1v2c0 .554.447 1.002 1 1.002h3v2.998c0 .554.447 1 1 1h2c.553 0 1-.446 1-1v-2.998h3c.553 0 1-.448 1-1.002v-2c0-.55-.447-1-1-1z"/><g fill="#BF392C"><path d="M2 5.001c-1.104 0-2 .896-2 2.001v4.999l7-7h-5zM1.99 29.001h5.01l-7-7.001v5.002c0 1.101.89 1.994 1.99 1.999zM30 5.001h-5l7 7v-4.999c0-1.105-.896-2.001-2-2.001zM30.01 29.001c1.1-.006 1.99-.898 1.99-1.999v-5.002l-7 7.001h5.01z"/></g></svg>
  </symbol>
</svg>
<svg xmlns="http://www.w3.org/2000/svg" style="display: none;"> 
  <symbol id="mountain" viewBox="0 0 32 32"><svg xmlns="http://www.w3.org/2000/svg" width="32" height="32"><path fill="#DBDEE0" d="M30.928 10.719c.043-.235.072-.473.072-.719 0-2.21-1.791-4-4-4-1.576 0-2.926.919-3.577 2.243-.545-.751-1.424-1.244-2.423-1.244-1.657 0-3 1.344-3 3.001 0 .243.036.477.092.703-.662.55-1.092 1.369-1.092 2.297 0 1.657 1.343 3 3 3h9c1.657 0 3-1.343 3-3 0-.919-.422-1.731-1.072-2.281z"/><path fill="#3DB39E" d="M16 .001l16 31.999h-32l16-31.999z"/><path fill="#E4E7E7" d="M10 11.001l3 2.999 3-2.999 3 2.999 3-2.999-5-11.001h-2l-5 11.001z"/><path fill="#4A4A4A" d="M18 29.001h2v2.999h-2v-2.999z"/><polygon fill="#277264" points="23.966,29.001 20.793,25 23,25 19,20 15,25 17.2,25 14,29.001"/><polygon fill="#349886" points="7,18 0,32 1,32 15,18"/><path fill="#ECEEEE" d="M13.928 14.719c.042-.235.072-.473.072-.719 0-2.21-1.791-4-4-4-1.576 0-2.926.919-3.577 2.243-.545-.751-1.424-1.244-2.423-1.244-1.657 0-3 1.344-3 3.001 0 .243.036.477.091.703-.661.55-1.091 1.369-1.091 2.297 0 1.657 1.343 3 3 3h9c1.657 0 3-1.343 3-3 0-.919-.422-1.731-1.072-2.281z"/></svg>
  </symbol>
</svg>
<svg xmlns="http://www.w3.org/2000/svg" style="display: none;"> 
  <symbol id="muffin" viewBox="0 0 32 32"><svg xmlns="http://www.w3.org/2000/svg" width="32" height="31"><path fill="#D07C40" d="M4 17h24l-3 14h-18l-3-14z"/><path fill="#CD9770" d="M15.469 31h1.031l.5-13h-2l.469 13zm-3.469 0h1v-13h-2l1 13zm-5-13l2 13h1l-1-13h-2zm12 13h1l1-13h-2v13zm4-13l-1 13h1l2-13h-2z"/><path fill="#C1733B" d="M3 17l3.001 14h7.996l14.003-14h-25z"/><g fill="#BF8C68"><polygon points="17,18 15,18 15.417,29.58 16.6,28.397"/><polygon points="11,18 12,31 13,31 13,18"/><polygon points="21,18 19,18 19,25.998 20.5,24.498"/><polygon points="7,18 9,31 10,31 9,18"/><polygon points="25,18 23,18 22.667,22.332 24.637,20.363"/></g><path fill="#F4B459" d="M32 14.53c0-3.248-3.229-3.353-3.229-3.353l.026-.561c0-4.629-3.424-8.632-7.844-8.632-.774 0-1.681.372-2.392.588-.821-1.528-2.367-2.572-4.162-2.572-2.092 0-3.76 1.411-4.417 3.367l-.382-.013c-3.534 0-6.618 2.721-6.618 6.115 0 .582.309 1.174.466 1.709h-.248c-1.768 0-3.2 1.501-3.2 3.353v1.117c0 1.853 1.433 3.321 3.2 3.321.944 0 1.783-.312 2.369-.992h1.661c.586.681 1.426.992 2.369.992.944 0 1.783-.312 2.369-.992h1.662c.586.681 1.425.992 2.369.992.944 0 1.783-.312 2.369-.992h1.661c.587.681 1.425.992 2.369.992.943 0 1.783-.312 2.369-.992h1.66c.586.681 1.426.992 2.369.992 1.768 0 3.201-1.469 3.201-3.321l.003-1.118z"/><path fill="#C39047" d="M8.5 12c-.828 0-1.5.671-1.5 1.5s.672 1.5 1.5 1.5 1.5-.672 1.5-1.5-.672-1.5-1.5-1.5zm3-5c-.828 0-1.5.671-1.5 1.5s.672 1.5 1.5 1.5 1.5-.671 1.5-1.5-.672-1.5-1.5-1.5zm8.5-1c-1.104 0-2 .896-2 2 0 1.105.896 2 2 2s2-.895 2-2c0-1.104-.896-2-2-2zm4.5 6c-.828 0-1.5.672-1.5 1.5s.672 1.5 1.5 1.5 1.5-.672 1.5-1.5-.672-1.5-1.5-1.5zm-8.5 0c-.553 0-1 .448-1 1 0 .553.447 1 1 1 .553 0 1-.447 1-1 0-.553-.447-1-1-1z"/></svg>
  </symbol>
</svg>
<svg xmlns="http://www.w3.org/2000/svg" style="display: none;"> 
  <symbol id="open-letter" viewBox="0 0 32 32"><svg xmlns="http://www.w3.org/2000/svg" width="32" height="32.086"><path fill="#D07C40" d="M32 12.087c-.145-.421-.373-.818-.709-1.154l-13.166-9.985c-1.717-1.265-2.592-1.265-4.28 0l-13.109 9.985c-.336.336-.565.733-.71 1.154l15.959 14 16.015-14z"/><path fill="#E4E7E7" d="M4 3.088h24v19.999h-24v-19.999z"/><path fill="#E8AB54" d="M1.648 30.751l14.333-11.165 14.37 11.166c.531-.271.967-.691 1.258-1.211l-13.484-10.591c-1.702-1.256-2.597-1.276-4.28 0l-13.463 10.574c.29.526.728.953 1.266 1.227z"/><path fill="#C2C5C5" d="M8 8.088v2h16v-2h-16zm0 5.999h16v-1.999h-16v1.999z"/><path fill="#E8AB54" d="M16 24.087l16-12v17c0 1.657-1.343 3-3 3h-26c-1.657 0-3-1.343-3-3v-17l16 12z"/><path fill="#F4B459" d="M29.32 32.054c.648-.069 1.234-.34 1.691-.756l-15.03-11.713-14.995 11.713c.458.417 1.043.687 1.693.757l26.641-.001z"/><path fill="#F9D7A7" d="M.382 30.524c.29.526.729.953 1.266 1.228l14.333-11.164 14.37 11.165c.531-.271.967-.691 1.258-1.211l-13.484-10.594c-1.889-1.399-2.347-1.463-4.28 0l-13.463 10.576z"/></svg>
  </symbol>
</svg>
<svg xmlns="http://www.w3.org/2000/svg" style="display: none;"> 
  <symbol id="packman" viewBox="0 0 32 32"><svg xmlns="http://www.w3.org/2000/svg" width="30" height="32"><path fill="#E2574C" d="M15 0c-8.284 0-15 6.715-15 14.996v8h.005c-.002 2.505-.005 8.888.005 9.004l4.99-3 5 3 5-3 5 3c2.48 0 2.518-3 5-3 2.48 0 2.488 3 4.971 3-.014-.005.014-6.498.025-9.004h.004v-8c0-8.281-6.716-14.996-15-14.996z"/><path fill="#E4E7E7" d="M20.5 13.001c-1.934 0-3.5 1.566-3.5 3.5 0 1.933 1.566 3.499 3.5 3.499s3.5-1.566 3.5-3.499c0-1.934-1.566-3.5-3.5-3.5zm-11 0c-1.933 0-3.5 1.566-3.5 3.5 0 1.933 1.567 3.499 3.5 3.499s3.5-1.566 3.5-3.499c0-1.934-1.567-3.5-3.5-3.5z"/><path fill="#324D5B" d="M20.5 15c-.828 0-1.5.672-1.5 1.501 0 .828.672 1.499 1.5 1.499s1.5-.671 1.5-1.499c0-.829-.672-1.501-1.5-1.501zm-11 0c-.828 0-1.5.672-1.5 1.501 0 .828.672 1.499 1.5 1.499s1.5-.671 1.5-1.499c0-.829-.672-1.501-1.5-1.501z"/><path fill="#D25147" d="M2.003 14.996c0-7.945 6.184-14.429 13.997-14.946-.332-.022-.662-.05-1-.05-8.282 0-14.997 6.714-14.997 14.996 0 0-.003 16.857.01 17.004.923 0 1.503-.404 1.995-.912-.004-1.749-.005-16.092-.005-16.092z"/></svg>
  </symbol>
</svg>
<svg xmlns="http://www.w3.org/2000/svg" style="display: none;"> 
  <symbol id="paper-plane" viewBox="0 0 32 32"><svg xmlns="http://www.w3.org/2000/svg" width="32.01" height="29" viewBox="0.01 0 32.01 29" enable-background="new 0.01 0 32.01 29"><path fill="#B7BBBD" d="M16.006 21.938l-4.358-1.937-2.662 5.991 7.02-4.054z"/><path fill="#EBEBEB" d="M32.01 0l-32 15.84 9.018 3.899-.003 6.092 3.256-4.387 11.549 7.556 8.18-29z"/><path fill="#D1D5D7" d="M32.02 0l-19.594 21.785-3.406 4.209-.022-5.941 23.022-20.053z"/></svg>
  </symbol>
</svg>
<svg xmlns="http://www.w3.org/2000/svg" style="display: none;"> 
  <symbol id="photo 2" viewBox="0 0 32 32"><svg xmlns="http://www.w3.org/2000/svg" width="32.031" height="32.006"><path fill="#51BBA8" d="M5.015.003h22c2.762 0 5 2.239 5 5v22c0 2.762-2.238 5-5 5h-22c-2.762 0-5-2.238-5-5v-22c0-2.761 2.239-5 5-5z"/><path fill="#475F6C" d="M16.015 5.003c6.075 0 11 4.926 11 11 0 6.075-4.925 11-11 11s-11-4.925-11-11c0-6.074 4.925-11 11-11z"/><path fill="#2B414D" d="M16.015 10.003c3.314 0 6 2.687 6 6s-2.686 6-6 6c-3.313 0-6-2.687-6-6s2.687-6 6-6z"/><path fill="#95A0A6" d="M19.015 11.003c1.104 0 2 .896 2 2 0 1.105-.896 2-2 2s-2-.895-2-2 .896-2 2-2z"/><path fill="#EBEBEB" d="M16.015 5.003c-6.075 0-11 4.926-11 11 0 6.075 4.925 11 11 11s11-4.925 11-11c0-6.074-4.924-11-11-11zm0 20.5c-5.238 0-9.5-4.262-9.5-9.5s4.262-9.5 9.5-9.5 9.5 4.262 9.5 9.5-4.261 9.5-9.5 9.5z"/><path fill="#459E8F" d="M16.015 27.003c-6.075 0-11-4.925-11-11 0-2.783 1.042-5.317 2.746-7.254-2.292 2.016-3.746 4.962-3.746 8.254 0 6.075 4.925 11 11 11 3.292 0 6.238-1.454 8.254-3.746-1.936 1.704-4.47 2.746-7.254 2.746z"/></svg>
  </symbol>
</svg>
<svg xmlns="http://www.w3.org/2000/svg" style="display: none;"> 
  <symbol id="piggy" viewBox="0 0 32 32"><svg xmlns="http://www.w3.org/2000/svg" width="32" height="23.98"><path fill="#E7A793" d="M32 10.505c0-5.803-6.49-10.506-14.494-10.506-2.781 0-5.372.578-7.578 1.564-.048-.207-.12-.409-.253-.573h-4.387c-.404.502-.404 1.313 0 1.813l.914 1.134c-1.441 1.303-2.464 2.854-2.92 4.558l-1.216.327c-1.486.399-2.368 1.934-1.97 3.424l.721 2.7c.398 1.49 1.927 2.377 3.413 1.979l1.423-.383c1.032 1.062 2.322 1.982 3.814 2.705l-.402 1.816c-.27 1.217.385 2.482 1.459 2.83 1.074.348 2.162-.357 2.432-1.574l.388-1.752c1.319.285 2.715.441 4.161.441 1.812 0 3.535-.25 5.134-.688l.459 1.969c.284 1.213 1.373 1.932 2.432 1.607 1.06-.326 1.688-1.572 1.402-2.785l-.541-2.318c3.407-1.923 5.609-4.917 5.609-8.288z"/><path fill="#9B7063" d="M18.012 2.997c-2.505 0-5.009.855-5.009.855v1.139s2.502-.854 5.004-.854 5.009.816 5.009.816v-1.136s-2.502-.82-5.004-.82zm-10.004 4.986c-.556 0-1.007.446-1.007.998 0 .551.451.998 1.007.998.556 0 1.007-.447 1.007-.998 0-.552-.452-.998-1.007-.998z"/></svg>
  </symbol>
</svg>
<svg xmlns="http://www.w3.org/2000/svg" style="display: none;"> 
  <symbol id="pin" viewBox="0 0 32 32"><svg xmlns="http://www.w3.org/2000/svg" width="20" height="32"><path fill="#324D5B" d="M9 15v16c0 .553.447 1 1 1s1-.447 1-1v-16h-2z"/><path fill="#E2574C" d="M10 0c5.523 0 10 4.478 10 10s-4.477 10.001-10 10.001c-5.522.001-10-4.479-10-10.001s4.478-10 10-10z"/><path fill="#E87970" d="M13 5.001c1.657 0 3 1.342 3 2.999s-1.343 3-3 3c-1.656 0-3-1.343-3-3 0-1.656 1.344-2.999 3-2.999z"/><path fill="#CB4E44" d="M11 19.002c-5.521 0-10-4.48-10-10.002 0-2.507.929-4.792 2.453-6.547-2.112 1.835-3.453 4.532-3.453 7.547 0 5.522 4.478 10.001 10 10.001 3.016 0 5.713-1.342 7.547-3.453-1.755 1.526-4.04 2.454-6.547 2.454z"/></svg>
  </symbol>
</svg>
<svg xmlns="http://www.w3.org/2000/svg" style="display: none;"> 
  <symbol id="pizza" viewBox="0 0 32 32"><svg xmlns="http://www.w3.org/2000/svg" width="32" height="32"><path fill="#F4B459" d="M16.002 1c5.491 0 11.925 2.039 14.218 4.981-.004-.003-14.218 26.019-14.218 26.019s-14.197-26.022-14.229-26.003c2.226-3.042 8.731-4.997 14.229-4.997z"/><path fill="#F1D999" d="M16.002 0c5.491 0 13.915 2.536 13.915 2.536l-13.915 25.465-13.905-25.413s8.407-2.588 13.905-2.588z"/><path fill="#D07C40" d="M12.502 8c1.381 0 2.5 1.12 2.5 2.5s-1.119 2.5-2.5 2.5-2.5-1.119-2.5-2.5 1.119-2.5 2.5-2.5z"/><path fill="#BB6F39" d="M30.047 1.918c-4.458-1.272-9.156-1.917-13.965-1.917h-.003c-4.872 0-9.628.661-14.136 1.966-1.469.425-2.288 1.87-1.828 3.229.68 2.013 2.91 1.795 3.591 1.666 3.94-1.133 8.132-1.891 12.404-1.891h.003c4.251 0 8.366.755 12.291 1.875 1.471.42 3.031-.344 3.484-1.705.454-1.36-.37-2.804-1.841-3.223z"/><path fill="#BF392C" d="M22.502 10c-3.59 0-6.5 2.91-6.5 6.501 0 3.077 2.141 5.648 5.014 6.321 1.997-3.656 4.234-7.75 6.004-10.989-1.17-1.133-2.761-1.833-4.518-1.833z"/></svg>
  </symbol>
</svg>
<svg xmlns="http://www.w3.org/2000/svg" style="display: none;"> 
  <symbol id="r2d2" viewBox="0 0 32 32"><svg xmlns="http://www.w3.org/2000/svg" width="28" height="31.999" viewBox="1 0 28 31.999" enable-background="new 1 0 28 31.999"><path fill="#E4E7E7" d="M4 9.999c-1.104 0-2 .896-2 2v18c-.553 0-1 .448-1 1.001 0 .552.447.999 1 .999h3c.553 0 1-.447 1-.999 0-.553-.447-1.001-1-1.001l1-20h-2zm24 20v-18c0-1.104-.896-2-2-2h-2l1 20c-.553 0-1 .448-1 1.001 0 .552.447.999 1 .999h3c.553 0 1-.447 1-.999 0-.553-.447-1.001-1-1.001z"/><g fill="#C8CBCB"><path d="M6 31c0-.553-.447-1.001-1-1.001l1-19.999h-2v18.997l1 3.002c.553 0 1-.447 1-.999zM26 10h-2l1 19.999c-.553 0-1 .448-1 1.001 0 .552.447.999 1 .999l1-2.991v-19.008z"/></g><path fill="#324D5B" d="M8 28h14l-2 2h-10l-2-2z"/><path fill="#E4E7E7" d="M15 0c5.522 0 10 4.477 10 10v18h-20v-18c0-5.523 4.478-10 10-10z"/><path fill="#324D5B" d="M15 2.999c1.104 0 2 .896 2 2 0 1.105-.896 2.001-2 2.001s-2-.896-2-2.001c0-1.103.896-2 2-2z"/><path fill="#2494BC" d="M5 10v2h20v-2h-20zm5 7h10v-2.001h-10v2.001zm0 3.999h10v-1.999h-10v1.999zm0 4.001h10v-2h-10v2z"/></svg>
  </symbol>
</svg>
<svg xmlns="http://www.w3.org/2000/svg" style="display: none;"> 
  <symbol id="rocket" viewBox="0 0 32 32"><svg xmlns="http://www.w3.org/2000/svg" width="32.031" height="32.006" viewBox="-0.016 -0.003 32.031 32.006" enable-background="new -0.016 -0.003 32.031 32.006"><path fill="#EFC75E" d="M9.627 22.319c1.495 1.489 1.945 3.938.451 5.428-1.495 1.489-6.001 3.148-7.496 1.659-1.494-1.489.172-5.979 1.666-7.468 1.495-1.489 3.885-1.109 5.379.381z"/><path fill="#E2574C" d="M23.432 19.008c2.251 4.667-3.242 15.53-5.782 12.456-1.03-1.246-.962-3.234-3.651-5.794-.004.016.979.174 2.13-.868 2.656-2.046 7.303-5.777 7.303-5.794z"/><path fill="#E2574C" d="M13.973 8.556c-5.045-2.286-16.73 3.171-13.4 5.738 1.35 1.041 3.492.984 6.267 3.699-.017.004-.192-.984.926-2.135 2.189-2.658 6.188-7.302 6.207-7.302z"/><path fill="#CF5349" d="M11.751 8.038l-.218-.011c-1.107 1.352-3.812 4.685-5.461 6.794-.676.734-.859 1.401-.898 1.795.323.222.656.478 1 .772.084-.398.305-.953.858-1.554 2.105-2.694 5.948-7.404 5.966-7.403-.377-.18-.801-.303-1.247-.393z"/><path fill="#CF5349" d="M23.463 19.082c-.658.554-4.828 3.973-7.306 5.924-.819.758-1.546.9-1.909.914.356.358.664.705.926 1.04.326.005 1.111-.098 1.997-.917 2.074-1.634 5.322-4.285 6.715-5.436-.075-.552-.213-1.067-.423-1.525z"/><path fill="#D7B354" d="M6.089 21.038c.208.932.847 2.043 1.842 3.036.99.988 2.097 1.624 3.028 1.836.158-1.252-.36-2.623-1.332-3.591-.967-.964-2.307-1.452-3.538-1.281z"/><path fill="#EBEBEB" d="M31.814.16c.752.711-.355 11.267-7.57 18.434-4.467 4.438-7.43 6.156-8.139 6.771-1.961.889-3.262 1.367-7.148-2.495-3.877-3.852-3.131-4.92-2.271-6.765.638-.716 2.405-3.691 6.873-8.13 7.212-7.166 17.468-8.513 18.255-7.815z"/><path fill="#324D5B" d="M22.795 9.163c1.555 1.558 1.555 4.084 0 5.643-1.556 1.558-4.077 1.558-5.633 0-1.555-1.559-1.555-4.085 0-5.643 1.556-1.559 4.077-1.559 5.633 0z"/><path fill="#CCD0D2" d="M21.4 10.577c.784.779.784 2.042 0 2.821-.783.779-2.055.779-2.84 0-.783-.779-.783-2.042 0-2.821.786-.779 2.057-.779 2.84 0z"/></svg>
  </symbol>
</svg>
<svg xmlns="http://www.w3.org/2000/svg" style="display: none;"> 
  <symbol id="sale" viewBox="0 0 32 32"><svg xmlns="http://www.w3.org/2000/svg" width="31.986" height="31.99"><path fill="#EFC75E" d="M.801 18.142l13.11 13.058c1.06 1.056 2.775 1.056 3.835 0l12.893-12.728c1.355-1.352 1.355-4.315 1.355-4.953v-10.802c0-1.492-1.085-2.717-2.582-2.717l-11.427.016c-1.808 0-3.163.45-4.519 1.801l-12.665 12.504c-1.059 1.055-1.059 2.765 0 3.821z"/><path fill="#D07C40" d="M25.494 9.002c-1.379 0-2.5-1.121-2.5-2.5s1.121-2.5 2.5-2.5 2.5 1.122 2.5 2.5c0 1.379-1.121 2.5-2.5 2.5z"/><path fill="#fff" d="M25.494 5.002c.827 0 1.5.671 1.5 1.5 0 .827-.673 1.5-1.5 1.5-.828 0-1.5-.672-1.5-1.5s.672-1.5 1.5-1.5z"/><path fill="#D07C40" d="M16.708 23.008l1.371-1-2.804-11.99-1.387 1.012 2.82 11.978zm-7.029-4.197c.391.17.795.211 1.213.123s.819-.298 1.203-.631c.566-.488.866-1.039.902-1.65.035-.611-.189-1.193-.676-1.745-.484-.55-1.033-.847-1.649-.896-.616-.047-1.206.174-1.771.664-.384.332-.648.697-.793 1.096s-.157.802-.04 1.209c.117.406.316.77.598 1.09.285.324.623.57 1.013.74zm-.271-2.858c-.02-.184.048-.34.201-.474.154-.133.318-.177.495-.13.28.072.591.303.931.688.342.389.529.725.562 1.008.025.182-.039.34-.192.473-.154.133-.322.176-.504.129-.277-.069-.588-.299-.93-.688-.343-.389-.531-.725-.563-1.006zm11.277 2.865c.387.172.789.213 1.207.125s.816-.299 1.195-.63c.566-.495.865-1.05.898-1.667s-.189-1.201-.67-1.754c-.48-.552-1.029-.854-1.643-.902-.613-.05-1.203.172-1.768.668-.379.33-.641.699-.783 1.102-.145.404-.156.811-.039 1.217.115.406.316.771.6 1.098.284.323.618.572 1.003.743zm-.266-2.875c-.025-.184.039-.342.191-.477.152-.133.318-.178.496-.134.279.073.588.306.93.696.34.393.527.73.559 1.014.02.184-.047.342-.199.475-.152.135-.316.178-.492.131-.277-.07-.584-.301-.926-.691-.34-.393-.528-.73-.559-1.014z"/></svg>
  </symbol>
</svg>
<svg xmlns="http://www.w3.org/2000/svg" style="display: none;"> 
  <symbol id="skull" viewBox="0 0 32 32"><svg xmlns="http://www.w3.org/2000/svg" width="28" height="32"><path fill="#CCD0D2" d="M14 0c-7.732 0-14 6.269-14 14.001 0 4.755 2.376 8.949 6 11.479v5.521c0 .552.447.999 1 .999h2v-3c0-.552.448-1 1-1 .553 0 1 .448 1 1v3h2v-3c0-.552.448-1 1-1 .553 0 1 .448 1 1v3h2v-3c0-.552.447-1 1-1s1 .448 1 1v3h2c.552 0 1-.447 1-.999v-5.521c3.624-2.53 6-6.727 6-11.479 0-7.732-6.27-14.001-14-14.001z"/><path fill="#A3A6A8" d="M21.553 15.158l-1.15-1.136 1.117-1.104c.418-.412.418-1.081 0-1.493-.418-.413-1.096-.413-1.513 0l-1.118 1.104-1.117-1.104c-.418-.413-1.097-.413-1.515 0-.418.412-.418 1.081 0 1.493l1.118 1.104-1.15 1.136c-.418.413-.418 1.081 0 1.494.418.412 1.094.412 1.512 0l1.152-1.138 1.151 1.138c.418.412 1.095.412 1.513 0 .418-.413.418-1.081 0-1.494zm-11.014-1.136l1.117-1.104c.418-.412.418-1.081 0-1.493-.418-.413-1.095-.413-1.513 0l-1.118 1.104-1.118-1.104c-.418-.413-1.096-.413-1.513 0-.418.412-.418 1.081 0 1.493l1.117 1.104-1.151 1.136c-.417.413-.417 1.081 0 1.494.418.412 1.096.412 1.514 0l1.151-1.138 1.151 1.138c.418.412 1.095.412 1.514 0 .417-.413.417-1.083 0-1.494l-1.151-1.136z"/><path fill="#B7BBBD" d="M8 31.001v-5.521c-3.624-2.53-6-6.727-6-11.479 0-7.395 5.736-13.436 13-13.951-.332-.023-.663-.05-1-.05-7.732 0-14 6.269-14 14.001 0 4.755 2.376 8.949 6 11.479v5.521c0 .552.447.999 1 .999h2c-.553 0-1-.447-1-.999z"/></svg>
  </symbol>
</svg>
<svg xmlns="http://www.w3.org/2000/svg" style="display: none;"> 
  <symbol id="speakers" viewBox="0 0 32 32"><svg xmlns="http://www.w3.org/2000/svg" width="24" height="32"><path fill="#324D5B" d="M1.327.015h21.347c.732 0 1.326.6 1.326 1.338v29.293c0 .739-.594 1.339-1.326 1.339h-21.347c-.733 0-1.327-.6-1.327-1.339v-29.293c0-.739.594-1.338 1.327-1.338z"/><path fill="#EFC75E" d="M12 16.03c3.316 0 6.005 2.683 6.005 5.991 0 3.31-2.688 5.992-6.005 5.992s-6.004-2.683-6.004-5.992c0-3.308 2.688-5.991 6.004-5.991z"/><path fill="#324D5B" d="M12 18.005c2.216 0 4.012 1.791 4.012 4.001s-1.796 4.001-4.012 4.001-4.012-1.791-4.012-4.001 1.796-4.001 4.012-4.001z"/><path fill="#E4E7E7" d="M12 21.008c.559 0 1.012.448 1.012 1.001 0 .552-.453 1-1.012 1s-1.011-.448-1.011-1c0-.553.452-1.001 1.011-1.001z"/><path fill="#E4E7E7" d="M12 4.001c2.216 0 4.012 1.791 4.012 4.001s-1.796 4.001-4.012 4.001-4.012-1.791-4.012-4.001 1.796-4.001 4.012-4.001z"/><path fill="#324D5B" d="M12 5.017c1.655 0 2.998 1.344 2.998 3.002 0 1.657-1.343 3.001-2.998 3.001s-2.997-1.344-2.997-3.001c0-1.659 1.342-3.002 2.997-3.002z"/><path fill="#EFC75E" d="M12 7.005c.547 0 .99.447.99 1s-.443 1-.99 1-.99-.447-.99-1 .443-1 .99-1z"/></svg>
  </symbol>
</svg>
<svg xmlns="http://www.w3.org/2000/svg" style="display: none;"> 
  <symbol id="store" viewBox="0 0 32 32"><svg xmlns="http://www.w3.org/2000/svg" width="32.007" height="28"><path fill="#E4E7E7" d="M3 1.995h26.001v26h-26.001v-26z"/><path fill="#CCD0D2" d="M5.017-.005h21.934l2.051 1.996h-26.002l2.017-1.996z"/><path fill="#26A6D1" d="M5 25.995h6v-15h-6v15zm8 0h6.001v-15h-6.001v15zm8.001-15v15h6v-15h-6z"/><path fill="#B6B9B9" d="M3 10.995h26.001v2h-26.001v-2z"/><path fill="#E4E7E7" d="M32 7.986l-3.209-2.993h-25.566l-3.21 2.993h-.008v2.003c0 .553.448 1.001 1 1.001h30c.553 0 1-.448 1-1.001v-2.003h-.007z"/><g fill="#2295BC"><polygon points="9,20.995 9,17.995 5,17.995 5,25.995 11,25.995 11,20.995"/><rect x="13" y="20.995" width="2" height="5"/><rect x="18.001" y="22.995" width="1" height="3"/><polygon points="22.001,17.995 22.001,22.995 21.001,22.995 21.001,25.995 27.001,25.995 27.001,17.995"/></g><path fill="#51BBA8" d="M7 21.995h-4c-1.104 0-2 .896-2 2v2c0 1.104.896 2 2 2h4c1.104 0 2-.896 2-2v-2c0-1.104-.896-2-2-2zm22.001 0h-4c-1.105 0-2 .896-2 2v2c0 1.104.895 2 2 2h4c1.104 0 2-.896 2-2v-2c0-1.104-.896-2-2-2z"/><g fill="#419687"><path d="M8 26.995h-4c-1.104 0-2-.896-2-2v-2c0-.293.066-.569.18-.82-.694.313-1.18 1.009-1.18 1.82v2c0 1.104.896 2 2 2h4c.812 0 1.506-.485 1.82-1.181-.251.116-.527.181-.82.181zM30.001 26.995h-4c-1.105 0-2-.896-2-2v-2c0-.293.064-.569.18-.82-.695.313-1.18 1.009-1.18 1.82v2c0 1.104.895 2 2 2h4c.811 0 1.506-.485 1.818-1.181-.249.116-.525.181-.818.181z"/></g><g fill="#2295BC"><rect x="21.001" y="10.995" width="6" height="2"/><rect x="5" y="10.995" width="6" height="2"/><rect x="13" y="10.995" width="6.001" height="2"/></g><polygon fill="#C2C5C5" points="0.001,7.986 0,7.986 0,7.995 31.994,7.995 31.994,7.986 31.984,7.986 28.777,4.995 3.21,4.995"/><polygon fill="#C2C5C5" points="0.001,7.986 0,7.986 0,7.995 31.994,7.995 31.994,7.986 31.984,7.986 28.777,4.995 3.21,4.995"/><g fill="#E2574C"><polygon points="7,7.995 8.438,4.995 6.438,4.995 5,7.995 5,10.99 7,10.99"/><polygon points="11,7.995 12,4.995 10,4.995 9,7.995 9,10.99 11,10.99"/><path d="M3 7.995l2-3h-1.777l-3.208 2.991h-.008v2.003c0 .553.448 1.001 1 1.001h1.993v-2.995zM31.994 7.995l-.024-.037-3.178-2.963h-1.799l2 3v2.995h2.014c.527 0 .951-.414.986-.933v-2.062z"/><rect x="13" y="4.995" width="2" height="5.995"/><polygon points="26.994,10.99 26.994,7.995 25.556,4.995 23.556,4.995 24.994,7.995 24.994,10.99"/><polygon points="22.994,10.99 22.994,7.995 21.994,4.995 19.994,4.995 20.994,7.995 20.994,10.99"/><rect x="17.001" y="4.995" width="2" height="5.995"/></g><g fill="#C04A40"><polygon points="25.556,4.995 23.556,4.995 24.994,7.995 26.994,7.995"/><polygon points="21.994,4.995 19.994,4.995 20.994,7.995 22.994,7.995"/><rect x="13" y="4.995" width="2" height="3"/><polygon points="10,4.995 9,7.995 11,7.995 12,4.995"/><polygon points="6.438,4.995 5,7.995 7,7.995 8.438,4.995"/><rect x="17.001" y="4.995" width="2" height="3"/><polygon points="31.994,7.995 31.97,7.958 28.792,4.995 26.994,4.995 28.994,7.995"/><polygon points="3.223,4.995 0.015,7.986 0.007,7.986 0.007,7.995 3,7.995 5,4.995"/></g></svg>
  </symbol>
</svg>
<svg xmlns="http://www.w3.org/2000/svg" style="display: none;"> 
  <symbol id="tactic" viewBox="0 0 32 32"><svg xmlns="http://www.w3.org/2000/svg" width="31.011" height="32.009" viewBox="-0.005 0.001 31.011 32.009" enable-background="new -0.005 0.001 31.011 32.009"><g fill="#E2574C"><path d="M4.496 18.19l2.452 2.45c.217.217.517.353.849.353.663 0 1.201-.538 1.201-1.2 0-.332-.135-.632-.352-.849l-2.452-2.451 2.453-2.45c.218-.217.353-.518.353-.849 0-.662-.538-1.199-1.201-1.199-.332 0-.632.135-.849.352l-2.453 2.451-2.452-2.451c-.217-.217-.518-.352-.849-.352-.664 0-1.201.537-1.201 1.199 0 .331.135.632.352.849l2.453 2.45-2.452 2.451c-.218.217-.353.517-.353.849 0 .662.538 1.2 1.201 1.2.332 0 .632-.136.849-.353l2.451-2.45zM28.202 25.496l2.452-2.45c.217-.217.352-.519.352-.849 0-.662-.537-1.199-1.2-1.199-.332 0-.633.135-.85.352l-2.452 2.451-2.452-2.451c-.217-.217-.518-.352-.849-.352-.663 0-1.201.537-1.201 1.199 0 .33.136.632.353.849l2.451 2.45-2.45 2.451c-.218.217-.354.517-.354.848 0 .664.538 1.201 1.201 1.201.331 0 .632-.136.849-.353l2.452-2.45 2.452 2.45c.217.217.518.353.85.353.663 0 1.2-.537 1.2-1.201 0-.331-.135-.631-.352-.848l-2.452-2.451zM23.106 6.693c.488-.379.57-1.091.183-1.589l-.161-.167-7.769-4.941v.002l-.002-.002-3.159 8.744-.023.232c0 .637.505 1.153 1.128 1.153.564 0 .866-.421 1.11-.981v-.001l.038-.075 1.422-3.727c.723 1.748 1.133 3.578 1.257 5.414l.021.293c.29 5.685-2.211 11.388-7.117 14.871-1.573 1.118-3.811 2.196-5.889 2.863 0 0-2.149.66-2.149 1.725 0 .796.665 1.494 1.443 1.494 1.309 0 6.001-2.151 8.201-3.713 7.513-5.336 10.197-15.117 7.048-23.478l2.951 1.791c.534.29 1.026.435 1.467.092z"/></g></svg>
  </symbol>
</svg>
<svg xmlns="http://www.w3.org/2000/svg" style="display: none;"> 
  <symbol id="toaster" viewBox="0 0 32 32"><svg xmlns="http://www.w3.org/2000/svg" width="32" height="32"><path fill="#F6C37A" d="M9 0h12c2.209 0 4 1.791 4 4 0 1.105-.896 3-2 3l-.027 5h-15.954l-.02-5c-1.105 0-2-1.895-2-3 .001-2.209 1.792-4 4.001-4z"/><path fill="#F4B459" d="M21 0h-12c-2.209 0-4 1.791-4 4 0 1.105.895 3 2 3l.02 5h15.953l.027-5c1.104 0 2-1.895 2-3 0-2.209-1.791-4-4-4zm2 6h-.994l-.027 5h-13.964l-.017-5h-.997c-.323-.042-1.001-1.178-1.001-2 0-1.654 1.346-3 3-3h12c1.653 0 3 1.346 3 3 0 .819-.681 1.956-1 2z"/><path fill="#324D5B" d="M29 15h2c.553 0 1 .449 1 1v1c0 .553-.447 1-1 1h-2v-3z"/><path fill="#E4E7E7" d="M6 10h18c2.762 0 5 2.24 5 5v15h-28v-15c0-2.76 2.237-5 5-5z"/><path fill="#CDD0D0" d="M9 10h-3c-2.762 0-5 2.24-5 5v15h3v-15c0-2.76 2.237-5 5-5z"/><path fill="#165971" d="M3 31c0 .553.447 1 1 1h1c.553 0 1-.447 1-1v-1h-3v1zm21-1v1c0 .553.445 1 1 1h1c.553 0 1-.447 1-1v-1h-3z"/><path fill="#2494BC" d="M1 27h28c.553 0 1 .449 1 1v1c0 .553-.447 1-1 1h-28c-.553 0-1-.447-1-1v-1c0-.551.446-1 1-1z"/><path fill="#2494BC" d="M15 16c2.209 0 4 1.791 4 4s-1.791 4-4 4-4-1.791-4-4 1.791-4 4-4z"/></svg>
  </symbol>
</svg>
<svg xmlns="http://www.w3.org/2000/svg" style="display: none;"> 
  <symbol id="train" viewBox="0 0 32 32"><svg xmlns="http://www.w3.org/2000/svg" width="27.979" height="31.969"><path fill="#484848" d="M.341 29.991l7.659-7.651c.454-.452 1.188-.452 1.642 0 .453.453.453 1.188 0 1.641l-4.02 4.016h16.738l-4.021-4.016c-.453-.453-.453-1.188 0-1.641.453-.452 1.188-.452 1.643 0l7.658 7.651c.453.451.453 1.187 0 1.638-.453.453-1.188.453-1.641 0l-1.707-1.642h-20.604l-1.705 1.642c-.453.453-1.188.453-1.643 0-.453-.451-.453-1.187.001-1.638z"/><path fill="#BF392C" d="M3.971 0h20c1.104 0 2 .895 2 2v22c0 1.104-.896 2-2 2h-20c-1.104 0-2-.896-2-2v-22c0-1.105.896-2 2-2z"/><path fill="#fff" d="M3.971 6h20v11h-20v-11z"/><path fill="#F0F0F0" d="M3.973 5.964h9.998v11.046h-9.998v-11.046z"/><path fill="#EBEBEB" d="M8.971 2h10v2h-10v-2z"/><path fill="#fff" d="M3.971 23h6v-4h-6v4zm14-4v4h6v-4h-6z"/><path fill="#F4B459" d="M4.971 22h4v-2.002h-4v2.002zm14-2.002v2.002h4v-2.002h-4z"/></svg>
  </symbol>
</svg>
<svg xmlns="http://www.w3.org/2000/svg" style="display: none;"> 
  <symbol id="umbrella" viewBox="0 0 32 32"><svg xmlns="http://www.w3.org/2000/svg" width="31.957" height="32"><path fill="#324D5B" d="M15.042 10l-.006 18.913c0 .697-.705 1.264-1.494 1.264-.79 0-1.432-.564-1.432-1.264 0-.502-.463-.912-1.035-.912-.57 0-1.033.41-1.033.912 0 .826.363 1.602 1.025 2.186.662.581 1.54.901 2.475.901s1.813-.32 2.475-.904c.654-.576 1.016-1.342 1.021-2.156l.004-.002v-18.938h-2z"/><path fill="#3DB39E" d="M15.966 0c-8.133 0-14.853 6.169-15.924 13.972.905-.27 2.871-1.018 3.963-1.018 2.93 0 5.159 1.533 5.992 3.043l.003.001.001-.003c.833-1.508 3.16-3.01 6.089-3.01 2.93 0 5.158 1.502 5.992 3.01l.006.005.004-.004s3.002-3.01 5.931-3.01c1.253 0 2.983.641 3.978.988-1.014-7.864-7.855-13.974-16.035-13.974z"/><path fill="#318F7E" d="M16.243.013l-.039-.001c-4.009 2.263-6.182 7.241-6.202 15.987l.001-.003c.833-1.508 3.16-3.01 6.089-3.01 2.93 0 5.159 1.502 5.993 3.01-.017-8.744-1.818-13.517-5.842-15.983z"/></svg>
  </symbol>
</svg>
<svg xmlns="http://www.w3.org/2000/svg" style="display: none;"> 
  <symbol id="watch" viewBox="0 0 32 32"><svg xmlns="http://www.w3.org/2000/svg" width="22" height="32"><path fill="#4B616E" d="M5 0h12v32h-12v-32z"/><path fill="#E4E7E7" d="M11 5c6.075 0 11 4.925 11 11 0 6.076-4.925 11-11 11s-11-4.924-11-11c0-6.074 4.925-11 11-11z"/><path fill="#4B616E" d="M15 15h-3v-3c0-.552-.447-1-1-1-.553 0-1 .448-1 1v4c0 .553.447 1 1 1h4c.553 0 1-.447 1-1 0-.552-.447-1-1-1z"/><path fill="#F4B459" d="M11 5c-6.075 0-11 4.926-11 11 0 6.076 4.925 11 11 11s11-4.924 11-11c0-6.074-4.925-11-11-11zm0 19.5c-4.688 0-8.5-3.812-8.5-8.5 0-4.688 3.812-8.5 8.5-8.5 4.688 0 8.5 3.813 8.5 8.5 0 4.688-3.812 8.5-8.5 8.5z"/></svg>
  </symbol>
</svg>
<svg xmlns="http://www.w3.org/2000/svg" style="display: none;"> 
  <symbol id="www" viewBox="0 0 32 32"><svg xmlns="http://www.w3.org/2000/svg" width="32" height="32"><path fill="#51BBA8" d="M11.992 32s-1.059-3.047-4-3c.081 0 4-1 4-1s-.877-3-1-3c-.062.029 3.53.578 4 3 .083-.041 2-2 2-2v6h-5z"/><path fill="#D07C40" d="M15.992 0c1.104 0 2 .896 2 2v30h-4v-30c0-1.103.895-2 2-2z"/><path fill="#F1CD6E" d="M-.008 6h29l3 5.973-3 6.027h-29l3-6.006-3-5.994z"/><path fill="#C4A659" d="M11.439 9.987c-.276 0-.457.176-.536.42l-.654 2.021h-.016l-.661-1.978c-.095-.287-.245-.463-.575-.463-.331 0-.481.176-.575.463l-.662 1.978h-.016l-.654-2.021c-.079-.244-.26-.42-.536-.42-.33 0-.567.191-.567.428 0 .154.04.285.119.498l.961 2.539c.118.309.315.537.686.537.347 0 .552-.187.654-.494l.582-1.707h.017l.583 1.707c.103.309.307.494.653.494.371 0 .567-.229.686-.537l.97-2.553c.062-.162.11-.279.11-.396-.001-.325-.238-.516-.569-.516zm7 0c-.276 0-.457.176-.537.42l-.653 2.021h-.017l-.66-1.978c-.095-.287-.244-.463-.575-.463s-.481.176-.575.463l-.662 1.978h-.016l-.654-2.021c-.079-.244-.26-.42-.536-.42-.33 0-.566.191-.566.428 0 .154.039.285.118.498l.961 2.539c.118.309.315.537.686.537.347 0 .552-.187.653-.494l.583-1.707h.017l.583 1.707c.103.309.308.494.653.494.371 0 .566-.229.686-.537l.971-2.553c.062-.162.109-.279.109-.396-.001-.325-.238-.516-.569-.516zm7 0c-.276 0-.457.176-.537.42l-.653 2.021h-.017l-.66-1.978c-.096-.287-.245-.463-.575-.463-.331 0-.481.176-.575.463l-.662 1.978h-.016l-.654-2.021c-.078-.244-.26-.42-.535-.42-.33 0-.566.191-.566.428 0 .154.039.285.117.498l.961 2.539c.119.309.315.537.687.537.347 0 .552-.187.654-.494l.581-1.707h.018l.583 1.707c.103.309.308.494.653.494.371 0 .566-.229.686-.537l.971-2.553c.062-.162.109-.279.109-.396-.002-.325-.239-.516-.57-.516z"/></svg>
  </symbol>
</svg>