
<svg xmlns="http://www.w3.org/2000/svg" style="display: none;"> 
  <symbol id="backpack" viewBox="0 0 32 32"><svg xmlns="http://www.w3.org/2000/svg" width="32" height="32"><path fill="#BF392C" d="M2 17h28c1.104 0 2 .896 2 2v9c0 1.105-.896 2-2 2h-28c-1.104 0-2-.895-2-2v-9c0-1.104.896-2 2-2z"/><path fill="#324D5B" d="M16 2c1.305 0 2.402.838 2.816 2h2.184c0-2.209-2.238-4-5-4-2.761 0-5 1.791-5 4h2.184c.414-1.162 1.512-2 2.816-2z"/><path fill="#E2574C" d="M9 4h14c3.312 0 6 2.687 6 6v20c0 1.105-.896 2-2 2h-22c-1.104 0-2-.895-2-2v-20c0-3.313 2.686-6 6-6z"/><path fill="#BF392C" d="M6 4h20c2.209 0 4 1.791 4 4v4c0 2.209-1.791 4.001-4 4.001h-20c-2.209 0-4-1.792-4-4.001v-4c0-2.209 1.791-4 4-4z"/><path fill="#EFC75E" d="M8 25s.771 2 1.531 2c.739 0 1.469-2 1.469-2v-21h-3v21zm13-21v21s.771 2 1.531 2c.739 0 1.469-2 1.469-2v-21h-3z"/><path fill="#E4E7E7" d="M7 23h5v-3h-5v3zm13-3v3h5v-3h-5z"/></svg>

  </symbol>
</svg>
<svg xmlns="http://www.w3.org/2000/svg" style="display: none;"> 
  <symbol id="clock" viewBox="0 0 32 32"><svg xmlns="http://www.w3.org/2000/svg" width="32" height="32.007"><path fill="#EBEBEB" d="M16 .003c8.837 0 16 7.163 16 16s-7.163 16.001-16 16.001-16-7.164-16-16.001 7.163-16 16-16z"/><path fill="#324D5B" d="M23 15.004h-6v-7.002c0-.553-.448-1-1-1s-1 .447-1 1v8c0 .553.448 1 1 1h7c.553 0 1-.447 1-1 0-.55-.447-.998-1-.998z"/><path fill="#E2574C" d="M16 .003c-8.837 0-16 7.163-16 16s7.163 16.001 16 16.001 16-7.164 16-16.001-7.163-16-16-16zm0 29.001c-7.168 0-13-5.832-13-13.001 0-7.168 5.832-13 13-13s13 5.832 13 13c0 7.169-5.832 13.001-13 13.001z"/></svg>
  </symbol>
</svg>